<svg width="50" height="50" viewBox="0 0 50 50" fill="none" xmlns="http://www.w3.org/2000/svg">
<path d="M45.833 3.33502H44.167V0.835022C44.167 0.375022 43.794 0.000976562 43.333 0.000976562C42.873 0.000976562 42.5 0.375022 42.5 0.835022V3.33502H35.833V0.835022C35.833 0.375022 35.46 0.000976562 35 0.000976562C34.54 0.000976562 34.167 0.375022 34.167 0.835022V3.33502H27.5V0.835022C27.5 0.375022 27.127 0.000976562 26.667 0.000976562C26.206 0.000976562 25.833 0.375022 25.833 0.835022V3.33502H19.167V0.835022C19.167 0.375022 18.794 0.000976562 18.333 0.000976562C17.873 0.000976562 17.5 0.375022 17.5 0.835022V3.33502H10.833V0.835022C10.833 0.375022 10.46 0.000976562 10 0.000976562C9.54 0.000976562 9.16699 0.375022 9.16699 0.835022V3.33502H7.5C5.2 3.33702 3.336 5.20098 3.333 7.50098V27.88C-1.191 32.992 -1.09898 40.704 3.54602 45.707C3.77702 45.966 4.023 46.211 4.281 46.443L4.28802 46.45H4.29303C9.29602 51.098 17.008 51.192 22.122 46.668H45.833C48.133 46.665 49.997 44.801 50 42.501V7.50098C49.997 5.20098 48.133 3.33702 45.833 3.33502ZM21.298 45.225C16.812 49.375 9.88698 49.371 5.40698 45.215C5.18498 45.016 4.974 44.805 4.776 44.583C0.390996 39.843 0.678025 32.446 5.41803 28.061C10.158 23.676 17.555 23.963 21.94 28.703C26.325 33.443 26.038 40.84 21.298 45.225ZM48.333 42.501C48.333 43.882 47.214 45.001 45.833 45.001H23.733C23.835 44.876 23.924 44.741 24.02 44.612C24.116 44.483 24.198 44.377 24.283 44.256C24.468 43.988 24.642 43.712 24.807 43.431C24.855 43.348 24.909 43.272 24.955 43.19C25.161 42.824 25.348 42.449 25.518 42.066C25.561 41.968 25.596 41.867 25.637 41.769C25.758 41.479 25.871 41.186 25.97 40.888C26.018 40.748 26.058 40.606 26.1 40.465C26.183 40.197 26.253 39.927 26.315 39.655C26.349 39.506 26.383 39.357 26.413 39.206C26.468 38.921 26.512 38.633 26.548 38.343C26.565 38.21 26.587 38.077 26.6 37.943C26.641 37.521 26.667 37.096 26.667 36.668C26.658 29.308 20.694 23.343 13.333 23.335C12.906 23.335 12.481 23.361 12.058 23.401C11.924 23.415 11.792 23.436 11.658 23.453C11.368 23.491 11.081 23.536 10.795 23.589C10.644 23.619 10.495 23.652 10.346 23.686C10.074 23.749 9.80597 23.821 9.53997 23.901C9.39697 23.943 9.25299 23.984 9.11199 24.031C8.81899 24.13 8.528 24.241 8.247 24.359C8.142 24.402 8.03598 24.442 7.93298 24.485C7.55298 24.651 7.18299 24.839 6.81799 25.043C6.72499 25.095 6.63802 25.155 6.54602 25.21C6.27702 25.37 6.01199 25.536 5.75299 25.71C5.62599 25.798 5.50299 25.893 5.37799 25.986C5.25299 26.078 5.123 26.168 5 26.268V13.335H48.333V42.501ZM48.333 11.668H5V7.50098C5 6.12098 6.119 5.00098 7.5 5.00098H9.16699V7.50098C9.16699 7.96198 9.54 8.33502 10 8.33502C10.46 8.33502 10.833 7.96198 10.833 7.50098V5.00098H17.5V7.50098C17.5 7.96198 17.873 8.33502 18.333 8.33502C18.794 8.33502 19.167 7.96198 19.167 7.50098V5.00098H25.833V7.50098C25.833 7.96198 26.206 8.33502 26.667 8.33502C27.127 8.33502 27.5 7.96198 27.5 7.50098V5.00098H34.167V7.50098C34.167 7.96198 34.54 8.33502 35 8.33502C35.46 8.33502 35.833 7.96198 35.833 7.50098V5.00098H42.5V7.50098C42.5 7.96198 42.873 8.33502 43.333 8.33502C43.794 8.33502 44.167 7.96198 44.167 7.50098V5.00098H45.833C47.214 5.00098 48.333 6.12098 48.333 7.50098V11.668Z" fill="black"/>
<path d="M13.333 27.501C12.873 27.501 12.5 27.874 12.5 28.334V35.834H8.33301C7.87301 35.834 7.5 36.207 7.5 36.668C7.5 37.128 7.87301 37.501 8.33301 37.501H13.333C13.794 37.501 14.167 37.128 14.167 36.668V28.334C14.167 27.874 13.794 27.501 13.333 27.501Z" fill="black"/>
</svg>
