<svg width="57" height="51" viewBox="0 0 57 51" fill="none" xmlns="http://www.w3.org/2000/svg">
<path d="M1.39197 50.6259C1.18097 50.6259 0.977972 50.5419 0.827972 50.3929C0.678972 50.2429 0.594971 50.0399 0.594971 49.8289V10.1049C0.594971 9.93792 0.646973 9.77596 0.743973 9.63996C0.840973 9.50496 0.977971 9.40292 1.13597 9.34992L18.343 3.52692C18.463 3.48592 18.59 3.47392 18.716 3.49292C18.841 3.51192 18.96 3.55992 19.063 3.63392C19.166 3.70692 19.25 3.80494 19.308 3.91694C19.366 4.02994 19.396 4.15493 19.396 4.28193V44.0049C19.396 44.1719 19.344 44.3349 19.246 44.4699C19.149 44.6059 19.012 44.7079 18.854 44.7609L1.64796 50.5809C1.56596 50.6099 1.47897 50.6249 1.39197 50.6259ZM2.18896 10.6769V48.7169L17.801 43.434V5.39295L2.18896 10.6769Z" fill="black"/>
<path d="M35.802 50.625C35.59 50.625 35.387 50.541 35.238 50.392C35.088 50.242 35.004 50.039 35.004 49.828V10.105C35.004 9.93797 35.057 9.77601 35.154 9.64001C35.251 9.50501 35.388 9.40297 35.546 9.34997L41.576 7.307C41.675 7.274 41.78 7.26002 41.885 7.26702C41.99 7.27402 42.092 7.30201 42.186 7.34801C42.28 7.39501 42.364 7.45902 42.433 7.53802C42.503 7.61702 42.555 7.70901 42.589 7.80901C42.623 7.90801 42.636 8.01297 42.629 8.11797C42.622 8.22297 42.595 8.325 42.548 8.419C42.502 8.513 42.437 8.59698 42.358 8.66698C42.279 8.73598 42.187 8.78801 42.088 8.82201L36.602 10.681V48.716L52.216 43.434V14.432C52.216 14.22 52.3 14.018 52.45 13.868C52.599 13.719 52.802 13.635 53.014 13.635C53.225 13.635 53.428 13.719 53.578 13.868C53.727 14.018 53.811 14.22 53.811 14.432V44.006C53.811 44.173 53.759 44.335 53.661 44.471C53.564 44.606 53.427 44.708 53.269 44.761L36.06 50.581C35.977 50.61 35.89 50.625 35.802 50.625Z" fill="black"/>
<path d="M35.804 50.626C35.717 50.626 35.631 50.612 35.548 50.584L18.343 44.763C18.185 44.71 18.047 44.608 17.95 44.473C17.853 44.337 17.801 44.174 17.801 44.008V4.28103C17.801 4.15503 17.832 4.03006 17.889 3.91806C17.947 3.80506 18.031 3.708 18.134 3.634C18.236 3.561 18.355 3.51205 18.48 3.49405C18.605 3.47505 18.733 3.48603 18.853 3.52603L36.059 9.34701C36.217 9.40001 36.354 9.50205 36.451 9.63705C36.549 9.77305 36.601 9.93502 36.601 10.102V49.829C36.601 50.04 36.517 50.2431 36.367 50.3921C36.218 50.5421 36.015 50.626 35.803 50.626H35.804ZM19.396 43.434L35.007 48.717V10.677L19.396 5.39303V43.434Z" fill="black"/>
<path d="M1.39201 25.101C1.21101 25.102 1.03601 25.04 0.895014 24.928C0.753014 24.816 0.655008 24.659 0.614008 24.483C0.574008 24.307 0.594007 24.122 0.672007 23.96C0.750007 23.797 0.881016 23.665 1.04402 23.586L18.25 15.236C18.44 15.144 18.659 15.131 18.859 15.2C19.059 15.27 19.223 15.416 19.316 15.606C19.408 15.796 19.421 16.015 19.351 16.215C19.282 16.415 19.136 16.579 18.946 16.672L1.74002 25.022C1.63202 25.074 1.51301 25.101 1.39201 25.101Z" fill="black"/>
<path d="M35.805 31.458C35.638 31.458 35.476 31.406 35.341 31.31C35.206 31.213 35.104 31.076 35.05 30.919C34.996 30.761 34.993 30.591 35.041 30.432C35.089 30.272 35.185 30.132 35.317 30.03L52.522 16.7459C52.605 16.6759 52.7 16.6239 52.803 16.5919C52.906 16.5599 53.014 16.5499 53.121 16.5609C53.228 16.5719 53.332 16.605 53.426 16.657C53.52 16.71 53.603 16.781 53.669 16.866C53.734 16.951 53.782 17.049 53.81 17.153C53.837 17.257 53.842 17.366 53.826 17.472C53.811 17.579 53.773 17.6809 53.717 17.7719C53.66 17.8639 53.586 17.943 53.498 18.005L36.291 31.292C36.152 31.4 35.981 31.458 35.805 31.458Z" fill="black"/>
<path d="M35.803 26.3339C35.631 26.3339 35.463 26.2779 35.325 26.1749L18.119 13.27C17.95 13.143 17.838 12.954 17.808 12.745C17.778 12.536 17.833 12.323 17.96 12.154C18.087 11.985 18.276 11.873 18.485 11.843C18.694 11.813 18.907 11.868 19.076 11.995L36.282 24.8989C36.416 24.9989 36.514 25.139 36.564 25.299C36.614 25.459 36.613 25.63 36.56 25.789C36.507 25.948 36.405 26.0859 36.269 26.1829C36.134 26.2809 35.971 26.3339 35.803 26.3339Z" fill="black"/>
<path d="M18.598 42.2759C18.416 42.2759 18.24 42.2149 18.098 42.1009C17.956 41.9869 17.858 41.8289 17.818 41.6509C17.779 41.4739 17.801 41.2879 17.882 41.1249C17.962 40.9629 18.096 40.8319 18.261 40.7559L34.929 32.9749C35.121 32.8849 35.34 32.8759 35.539 32.9479C35.738 33.0199 35.9 33.1679 35.989 33.3599C36.079 33.5519 36.088 33.7709 36.016 33.9699C35.944 34.1689 35.795 34.3309 35.604 34.4199L18.932 42.2009C18.828 42.2499 18.714 42.2759 18.598 42.2759Z" fill="black"/>
<path d="M53.01 39.144C52.832 39.144 52.659 39.084 52.518 38.974L39.044 28.409C38.878 28.279 38.77 28.088 38.745 27.878C38.719 27.668 38.778 27.456 38.909 27.29C39.039 27.123 39.23 27.016 39.44 26.99C39.65 26.965 39.862 27.024 40.028 27.154L53.502 37.719C53.633 37.822 53.728 37.962 53.775 38.121C53.822 38.28 53.818 38.45 53.764 38.607C53.71 38.764 53.608 38.9 53.473 38.996C53.338 39.092 53.176 39.144 53.01 39.144Z" fill="black"/>
<path d="M18.598 36.962C18.506 36.962 18.415 36.946 18.329 36.915L1.12301 30.748C0.930006 30.672 0.775 30.524 0.689 30.335C0.603 30.147 0.594007 29.932 0.664007 29.737C0.734007 29.542 0.877009 29.382 1.06301 29.29C1.24901 29.199 1.463 29.183 1.661 29.247L18.867 35.414C19.044 35.477 19.193 35.601 19.288 35.764C19.383 35.926 19.417 36.117 19.385 36.302C19.353 36.487 19.256 36.655 19.112 36.776C18.968 36.897 18.786 36.963 18.598 36.963V36.962Z" fill="black"/>
<path d="M48.716 21.4829C48.595 21.4829 48.476 21.456 48.367 21.403C48.258 21.35 48.162 21.2719 48.088 21.1769C47.366 20.2519 41.028 12.029 41.028 8.06195C41.048 6.03695 41.868 4.10096 43.307 2.67596C44.747 1.25096 46.691 0.450928 48.717 0.450928C50.742 0.450928 52.686 1.25096 54.126 2.67596C55.566 4.10096 56.385 6.03695 56.405 8.06195C56.405 12.029 50.068 20.2519 49.345 21.1769C49.271 21.2729 49.175 21.35 49.066 21.403C48.957 21.456 48.837 21.4829 48.716 21.4829ZM48.716 1.96893C47.101 1.96993 45.552 2.61294 44.409 3.75494C43.267 4.89794 42.624 6.44695 42.622 8.06195C42.622 10.674 46.571 16.4989 48.716 19.3709C50.862 16.4989 54.811 10.674 54.811 8.06195C54.809 6.44695 54.166 4.89794 53.024 3.75494C51.881 2.61294 50.332 1.96993 48.716 1.96893Z" fill="black"/>
<path d="M48.716 12.6411C47.811 12.6411 46.925 12.3721 46.173 11.8691C45.42 11.3661 44.833 10.6511 44.487 9.81411C44.14 8.97711 44.049 8.05712 44.226 7.16811C44.403 6.28011 44.839 5.46506 45.48 4.82406C46.12 4.18406 46.936 3.74807 47.824 3.57107C48.712 3.39507 49.633 3.48506 50.47 3.83206C51.306 4.17906 52.021 4.76509 52.524 5.51809C53.027 6.27109 53.296 7.1571 53.296 8.0621C53.294 9.2761 52.811 10.4401 51.953 11.2991C51.094 12.1571 49.93 12.6401 48.716 12.6411ZM48.716 5.07906C48.126 5.07906 47.549 5.25406 47.058 5.58206C46.568 5.91006 46.185 6.37608 45.96 6.92208C45.734 7.46708 45.675 8.06708 45.79 8.64608C45.906 9.22508 46.19 9.7571 46.607 10.1741C47.025 10.5911 47.557 10.8751 48.136 10.9901C48.715 11.1051 49.315 11.0461 49.86 10.8201C50.405 10.5941 50.871 10.2111 51.199 9.72006C51.527 9.23006 51.702 8.6531 51.701 8.0621C51.7 7.2711 51.385 6.51309 50.826 5.95309C50.266 5.39409 49.507 5.07906 48.716 5.07906Z" fill="black"/>
<path d="M26.558 38.464C26.437 38.464 26.318 38.437 26.209 38.383C26.1 38.33 26.005 38.253 25.93 38.158C25.43 37.52 21.042 31.823 21.042 29.022C21.042 27.559 21.623 26.156 22.658 25.122C23.692 24.087 25.095 23.506 26.558 23.506C28.022 23.506 29.425 24.087 30.459 25.122C31.494 26.156 32.075 27.559 32.075 29.022C32.075 31.823 27.69 37.518 27.187 38.158C27.112 38.253 27.017 38.33 26.908 38.383C26.799 38.437 26.68 38.464 26.558 38.464ZM26.558 25.101C25.519 25.102 24.522 25.516 23.787 26.251C23.051 26.986 22.638 27.983 22.637 29.022C22.637 30.53 24.834 34.01 26.558 36.347C28.283 34.009 30.48 30.527 30.48 29.022C30.479 27.983 30.065 26.986 29.33 26.251C28.595 25.516 27.598 25.102 26.558 25.101Z" fill="black"/>
<path d="M26.559 32.038C25.963 32.038 25.38 31.861 24.884 31.53C24.389 31.199 24.002 30.728 23.774 30.177C23.546 29.627 23.487 29.021 23.603 28.436C23.719 27.851 24.006 27.314 24.428 26.893C24.849 26.471 25.386 26.184 25.971 26.068C26.555 25.952 27.161 26.012 27.712 26.24C28.263 26.468 28.733 26.854 29.065 27.35C29.396 27.845 29.573 28.428 29.573 29.024C29.571 29.823 29.254 30.589 28.689 31.154C28.124 31.719 27.358 32.037 26.559 32.038ZM26.559 27.605C26.278 27.605 26.004 27.688 25.77 27.844C25.537 28 25.355 28.222 25.248 28.481C25.14 28.74 25.112 29.026 25.167 29.301C25.222 29.576 25.357 29.829 25.555 30.028C25.754 30.226 26.007 30.361 26.282 30.416C26.557 30.471 26.842 30.443 27.102 30.335C27.361 30.228 27.583 30.046 27.739 29.813C27.895 29.579 27.978 29.305 27.978 29.024C27.978 28.648 27.828 28.286 27.562 28.02C27.296 27.754 26.935 27.604 26.559 27.603V27.605Z" fill="black"/>
</svg>
