<svg width="31" height="47" viewBox="0 0 31 47" fill="none" xmlns="http://www.w3.org/2000/svg">
<path d="M24.68 14.688C24.68 9.62405 20.566 5.50806 15.5 5.50806C10.45 5.50806 6.32001 9.61005 6.32001 14.688C6.32001 19.75 10.433 23.8671 15.5 23.8671C20.544 23.8671 24.68 19.774 24.68 14.688ZM8.38699 16.5231C8.23399 15.9281 8.15601 15.313 8.15601 14.688C8.15601 14.062 8.23399 13.4471 8.38699 12.8521H22.613C22.766 13.4471 22.844 14.062 22.844 14.688C22.844 15.313 22.766 15.9281 22.613 16.5231H8.38699ZM15.5 7.34406C18.152 7.34406 20.567 8.77705 21.861 11.0161H9.13901C10.433 8.77705 12.848 7.34406 15.5 7.34406ZM15.5 22.0311C12.848 22.0311 10.433 20.598 9.13901 18.358H21.861C20.567 20.598 18.152 22.0311 15.5 22.0311Z" fill="black"/>
<path d="M23.945 33.598C24.452 33.598 24.863 33.1869 24.863 32.6799C24.863 32.1729 24.452 31.762 23.945 31.762C23.438 31.762 23.027 32.1729 23.027 32.6799C23.027 33.1869 23.438 33.598 23.945 33.598Z" fill="black"/>
<path d="M15.5 0C7.40102 0 0.812012 6.58899 0.812012 14.688C0.812012 20.557 3.16802 27.727 7.81502 35.998C11.252 42.115 14.742 46.603 14.777 46.647C14.951 46.87 15.217 47 15.5 47C15.783 47 16.049 46.87 16.223 46.647C16.255 46.606 19.465 42.48 22.754 36.757C23.006 36.318 22.855 35.757 22.415 35.504C21.975 35.252 21.414 35.403 21.162 35.843C18.866 39.837 16.615 43.032 15.5 44.552C14.315 42.936 11.846 39.428 9.40201 35.075C4.98401 27.205 2.64801 20.155 2.64801 14.688C2.64801 7.60099 8.41402 1.836 15.5 1.836C22.586 1.836 28.352 7.60099 28.352 14.688C28.352 18.619 27.177 23.291 24.861 28.573C24.658 29.037 24.869 29.578 25.333 29.782C25.798 29.986 26.339 29.774 26.543 29.31C28.961 23.794 30.188 18.875 30.188 14.688C30.188 6.58899 23.599 0 15.5 0Z" fill="black"/>
</svg>
