<svg width="54" height="52" viewBox="0 0 54 52" fill="none" xmlns="http://www.w3.org/2000/svg">
<path d="M27 41.822C36.119 41.822 43.538 34.706 43.538 25.96C43.538 17.213 36.119 10.098 27 10.098C17.881 10.098 10.461 17.213 10.461 25.96C10.461 34.706 17.881 41.822 27 41.822ZM19.042 38.1V32.673C19.042 30.66 20.5 28.968 22.456 28.516L21.37 32.684C21.222 33.25 21.408 33.848 21.854 34.244C22.167 34.522 22.573 34.669 22.986 34.669C23.032 34.669 23.078 34.667 23.123 34.664L25.571 38.577C25.875 39.062 26.409 39.352 27 39.352C27.59 39.352 28.124 39.062 28.428 38.577L30.876 34.664C30.922 34.667 30.968 34.669 31.013 34.669C31.427 34.669 31.833 34.522 32.145 34.244C32.592 33.848 32.777 33.25 32.63 32.684L31.543 28.517C33.499 28.969 34.957 30.66 34.957 32.673V38.101C32.651 39.496 29.922 40.305 27 40.305C24.077 40.305 21.348 39.496 19.042 38.1ZM21.667 18.408V17.569C21.667 16.136 22.882 14.971 24.375 14.971H29.624C31.118 14.971 32.333 16.137 32.333 17.569V18.408C32.333 18.452 32.295 18.488 32.249 18.488H21.751C21.704 18.488 21.667 18.452 21.667 18.408ZM22.542 20.006H31.458V22.604C31.458 23.759 30.985 24.842 30.125 25.652C29.267 26.462 28.132 26.898 26.923 26.879C24.507 26.84 22.542 24.885 22.542 22.521V20.006ZM30.758 33.074L28.232 32.267L30.165 29.486L31.095 33.052C31.099 33.066 31.107 33.098 31.071 33.13C31.034 33.163 31.001 33.152 30.987 33.148L30.763 33.076C30.761 33.075 30.759 33.075 30.758 33.074ZM23.237 33.076L23.013 33.148C22.998 33.152 22.965 33.163 22.929 33.13C22.893 33.098 22.901 33.066 22.905 33.052L23.834 29.486L25.767 32.267L23.241 33.075C23.24 33.075 23.238 33.075 23.237 33.076ZM27 31.305L24.978 28.397H29.021L27 31.305ZM27 33.472L29.314 34.212L27.072 37.796C27.064 37.807 27.047 37.835 27 37.835C26.952 37.835 26.935 37.807 26.928 37.796L24.686 34.212L27 33.472ZM27 11.615C35.247 11.615 41.956 18.05 41.956 25.96C41.956 30.395 39.846 34.366 36.539 37V32.673C36.539 29.655 34.121 27.17 31.046 26.904C31.11 26.849 31.173 26.792 31.235 26.734C32.399 25.636 33.04 24.169 33.04 22.603V19.814C33.56 19.543 33.915 19.015 33.915 18.408V17.569C33.915 15.3 31.99 13.454 29.624 13.454H24.375C22.009 13.454 20.085 15.3 20.085 17.569V18.408C20.085 19.015 20.439 19.543 20.96 19.814V22.521C20.96 24.253 21.748 25.821 22.992 26.901C19.898 27.15 17.46 29.643 17.46 32.673V37C14.153 34.366 12.043 30.395 12.043 25.96C12.043 18.05 18.753 11.615 27 11.615Z" fill="black"/>
<path d="M12.83 13.4439C12.496 13.1729 11.997 13.2129 11.715 13.5319C8.65003 16.9959 6.96198 21.41 6.96198 25.96C6.96198 36.557 15.951 45.1779 27 45.1779C38.048 45.1779 47.037 36.557 47.037 25.96C47.037 15.362 38.048 6.74097 27 6.74097C22.257 6.74097 17.655 8.35891 14.044 11.2979C13.71 11.5699 13.67 12.0479 13.952 12.3679C14.235 12.6869 14.734 12.727 15.067 12.455C18.393 9.74896 22.631 8.25793 27 8.25793C37.176 8.25793 45.455 16.199 45.455 25.96C45.455 35.72 37.176 43.6609 27 43.6609C16.823 43.6609 8.54401 35.72 8.54401 25.96C8.54401 21.769 10.098 17.7039 12.921 14.5139C13.204 14.1939 13.163 13.7149 12.83 13.4439Z" fill="black"/>
<path d="M52.54 20.8851L49.866 20.5651C49.832 20.5611 49.804 20.5371 49.796 20.5051C49.229 18.3201 48.325 16.2341 47.108 14.3071C47.09 14.2771 47.092 14.2421 47.113 14.2161L48.775 12.1671C49.291 11.5331 49.232 10.6251 48.639 10.0561L43.545 5.17108C42.952 4.60208 42.006 4.54504 41.344 5.04004L39.198 6.64209C39.171 6.66209 39.133 6.66406 39.103 6.64606C37.096 5.48706 34.927 4.62707 32.655 4.08807C32.621 4.08007 32.596 4.05406 32.592 4.02106L32.255 1.42908C32.151 0.630077 31.44 0.0280762 30.602 0.0280762H23.398C22.56 0.0280762 21.849 0.63004 21.745 1.42804L21.408 4.02106C21.404 4.05406 21.379 4.08007 21.345 4.08807C19.073 4.62707 16.904 5.48706 14.897 6.64606C14.867 6.66406 14.83 6.66209 14.802 6.64209L12.656 5.03906C11.994 4.54506 11.048 4.60208 10.455 5.17108L5.36102 10.0561C4.76802 10.6251 4.70998 11.5321 5.22498 12.1671L6.88702 14.2161C6.90802 14.2421 6.91003 14.2771 6.89203 14.3061C5.67503 16.2341 4.77098 18.3201 4.20398 20.5051C4.19598 20.5371 4.16797 20.5611 4.13397 20.5651L1.46002 20.8851C0.628022 20.9841 0 21.666 0 22.47V29.3791C0 30.1841 0.628022 30.8651 1.46002 30.9651L4.11603 31.282C4.15003 31.286 4.17797 31.3101 4.18597 31.3431C4.74697 33.5391 5.649 35.635 6.867 37.574C6.885 37.603 6.884 37.6381 6.862 37.6641L5.22498 39.683C4.70998 40.317 4.76802 41.2251 5.36102 41.7941L10.455 46.6791C11.048 47.2481 11.994 47.3041 12.656 46.8101L14.75 45.2471C14.777 45.2271 14.814 45.225 14.844 45.243C16.868 46.419 19.059 47.29 21.355 47.834C21.389 47.842 21.413 47.8681 21.418 47.9011L21.745 50.4211C21.849 51.2191 22.56 51.821 23.398 51.821H30.602C31.44 51.821 32.151 51.2191 32.255 50.4211L32.582 47.9011C32.587 47.8681 32.611 47.842 32.645 47.834C33.321 47.674 33.997 47.4831 34.654 47.2661C35.067 47.1291 35.286 46.6981 35.144 46.3011C35.002 45.9051 34.552 45.6951 34.139 45.8311C33.526 46.0331 32.896 46.211 32.266 46.36C31.601 46.518 31.097 47.0611 31.012 47.7131L30.685 50.233C30.68 50.274 30.644 50.3041 30.602 50.3041H23.398C23.356 50.3041 23.32 50.274 23.315 50.233L22.988 47.7131C22.903 47.0611 22.399 46.518 21.734 46.36C19.593 45.854 17.551 45.0411 15.664 43.9451C15.077 43.6041 14.319 43.646 13.778 44.05L11.684 45.613C11.651 45.638 11.603 45.6351 11.573 45.6061L6.47998 40.7211C6.44998 40.6921 6.44702 40.6471 6.47302 40.6151L8.11102 38.597C8.53102 38.079 8.57598 37.3531 8.22198 36.7911C7.08698 34.9841 6.24602 33.0291 5.72302 30.9821C5.55902 30.3421 4.99201 29.858 4.31201 29.777L1.65601 29.459C1.61401 29.454 1.58197 29.4201 1.58197 29.3791V22.4711C1.58197 22.4301 1.61401 22.3961 1.65601 22.3911L4.33002 22.071C5.00802 21.99 5.57499 21.508 5.73999 20.871C6.26799 18.834 7.111 16.89 8.245 15.092C8.601 14.529 8.55699 13.8031 8.13599 13.2841L6.47302 11.235C6.44702 11.203 6.44998 11.1581 6.47998 11.1291L11.574 6.24408C11.603 6.21508 11.651 6.21206 11.684 6.23706L13.831 7.83905C14.37 8.24205 15.127 8.28504 15.713 7.94604C17.584 6.86604 19.607 6.06304 21.725 5.56104C22.39 5.40404 22.894 4.86005 22.978 4.20905L23.315 1.61609C23.32 1.57609 23.356 1.54608 23.398 1.54608H30.602C30.644 1.54608 30.68 1.57609 30.685 1.61609L31.022 4.20905C31.106 4.86005 31.61 5.40404 32.275 5.56104C34.393 6.06304 36.416 6.86604 38.287 7.94604C38.873 8.28504 39.63 8.24205 40.169 7.83905L42.316 6.23706C42.349 6.21206 42.397 6.21508 42.426 6.24408L47.52 11.1291C47.55 11.1581 47.553 11.203 47.527 11.235L45.864 13.2841C45.444 13.8031 45.4 14.5301 45.755 15.0931C46.889 16.8901 47.732 18.834 48.26 20.871C48.425 21.508 48.992 21.99 49.67 22.071L52.344 22.3911C52.386 22.3961 52.418 22.4301 52.418 22.4711V29.3791C52.418 29.4201 52.386 29.454 52.344 29.459L49.688 29.777C49.008 29.858 48.441 30.3421 48.277 30.9821C47.754 33.0291 46.913 34.9841 45.778 36.7911C45.424 37.3531 45.469 38.079 45.889 38.597L47.527 40.6151C47.553 40.6471 47.55 40.6921 47.52 40.7211L42.426 45.6061C42.397 45.6351 42.349 45.638 42.316 45.613L40.222 44.05C39.681 43.646 38.923 43.6041 38.336 43.9451C37.885 44.2071 37.418 44.457 36.949 44.686C36.56 44.877 36.405 45.334 36.604 45.707C36.802 46.08 37.279 46.2281 37.668 46.0381C38.171 45.7911 38.672 45.524 39.156 45.243C39.186 45.225 39.223 45.2271 39.25 45.2471L41.344 46.8101C42.006 47.3041 42.952 47.2481 43.545 46.6791L48.639 41.7941C49.232 41.2251 49.29 40.317 48.775 39.683L47.138 37.665C47.116 37.638 47.115 37.603 47.133 37.574C48.351 35.635 49.253 33.5391 49.814 31.3431C49.822 31.3101 49.85 31.287 49.884 31.282L52.54 30.9651C53.372 30.8651 54 30.1841 54 29.3791V22.47C54 21.666 53.372 20.9841 52.54 20.8851Z" fill="black"/>
</svg>
