<svg width="66" height="59" viewBox="0 0 66 59" fill="none" xmlns="http://www.w3.org/2000/svg">
<path d="M32.891 37.95V40.15H31.485L32.891 37.95Z" fill="#EC1F36"/>
<path d="M45.961 20.7098C45.865 20.9198 45.706 21.0899 45.514 21.2399C45.354 21.3599 45.13 21.4799 44.875 21.5599C44.619 21.6199 44.331 21.6799 44.012 21.6799C43.852 21.6799 43.692 21.6499 43.532 21.6499C43.405 21.6199 43.245 21.5899 43.149 21.5599C43.021 21.5299 42.925 21.5099 42.861 21.4799C42.766 21.4499 42.734 21.4499 42.702 21.4199C42.67 21.3899 42.67 21.3599 42.638 21.3599C42.638 21.3299 42.638 21.2999 42.638 21.2699C42.606 21.2399 42.606 21.2099 42.606 21.1499C42.606 21.0899 42.606 21.0699 42.606 21.0099C42.606 20.9199 42.606 20.8599 42.606 20.7999C42.638 20.7699 42.638 20.7399 42.638 20.6799C42.67 20.6499 42.67 20.6499 42.67 20.6299C42.702 20.6299 42.702 20.6299 42.734 20.6299C42.766 20.6299 42.829 20.6299 42.861 20.6499C42.925 20.6799 42.989 20.7099 43.085 20.7399C43.181 20.7999 43.309 20.8299 43.437 20.8599C43.564 20.8599 43.724 20.8899 43.884 20.8899C44.044 20.8899 44.204 20.8598 44.331 20.8298C44.459 20.7998 44.587 20.7699 44.683 20.6799C44.747 20.6299 44.843 20.5698 44.875 20.4498C44.939 20.3598 44.971 20.2399 44.971 20.0999C44.971 19.9799 44.939 19.8899 44.875 19.7799C44.843 19.6899 44.779 19.5999 44.683 19.5399C44.619 19.4799 44.491 19.4499 44.363 19.3899C44.204 19.3599 44.044 19.3599 43.852 19.3599C43.692 19.3599 43.532 19.3599 43.405 19.3899C43.277 19.3899 43.149 19.3899 43.053 19.3899C42.957 19.3899 42.893 19.3898 42.861 19.3398C42.829 19.3098 42.829 19.2499 42.829 19.1299V17.0499C42.829 16.9599 42.829 16.8998 42.893 16.8398C42.925 16.8098 42.989 16.7799 43.085 16.7799H45.61C45.642 16.7799 45.674 16.7799 45.674 16.8099C45.706 16.8099 45.737 16.8399 45.737 16.8699C45.737 16.8999 45.769 16.9599 45.769 17.0199C45.769 17.0499 45.801 17.1098 45.801 17.1898C45.801 17.3398 45.769 17.4599 45.737 17.5199C45.706 17.5799 45.674 17.6299 45.61 17.6299H43.724V18.6299C43.82 18.6299 43.916 18.6299 44.012 18.6299C44.108 18.6299 44.204 18.6299 44.299 18.6299C44.587 18.6299 44.843 18.6598 45.066 18.7198C45.29 18.7798 45.482 18.8699 45.642 18.9799C45.801 19.0999 45.897 19.2499 45.993 19.4199C46.057 19.5999 46.089 19.7999 46.089 20.0099C46.089 20.2999 46.057 20.5098 45.961 20.7098ZM33.818 21.2699C33.626 21.4199 33.402 21.5099 33.147 21.5599C32.891 21.6499 32.635 21.6799 32.316 21.6799C32.156 21.6799 31.964 21.6499 31.804 21.6199C31.645 21.5899 31.517 21.5599 31.389 21.5299C31.261 21.5099 31.165 21.4798 31.069 21.4498C31.006 21.4198 30.942 21.3599 30.91 21.3599C30.91 21.3299 30.878 21.2999 30.878 21.2999C30.846 21.2699 30.846 21.2398 30.846 21.2098C30.846 21.1798 30.814 21.1198 30.814 21.0698C30.814 21.0398 30.814 20.9799 30.814 20.8899C30.814 20.7699 30.814 20.6799 30.846 20.6499C30.878 20.5999 30.91 20.5698 30.942 20.5698C30.974 20.5698 31.006 20.5999 31.069 20.6299C31.165 20.6499 31.229 20.6799 31.357 20.7399C31.453 20.7699 31.581 20.7998 31.709 20.8298C31.868 20.8598 32.028 20.8899 32.188 20.8899C32.348 20.8899 32.476 20.8598 32.571 20.8298C32.699 20.7998 32.795 20.7698 32.891 20.7098C32.955 20.6498 33.019 20.5699 33.051 20.4799C33.115 20.4199 33.147 20.3298 33.147 20.2098C33.147 20.0998 33.083 20.0099 33.051 19.9199C33.019 19.8299 32.923 19.7498 32.827 19.6898C32.731 19.6298 32.635 19.5699 32.476 19.5399C32.348 19.5099 32.156 19.4799 31.964 19.4799H31.517C31.485 19.4799 31.453 19.4799 31.421 19.4799C31.389 19.4799 31.357 19.4499 31.357 19.4199C31.357 19.3899 31.325 19.3599 31.325 19.3099C31.325 19.2799 31.325 19.2199 31.325 19.1299C31.325 19.0399 31.325 18.9798 31.325 18.9498C31.325 18.8998 31.357 18.8698 31.357 18.8398C31.357 18.8098 31.389 18.8099 31.421 18.8099C31.453 18.7799 31.453 18.7799 31.485 18.7799H31.964C32.124 18.7799 32.252 18.7498 32.38 18.7198C32.508 18.6898 32.635 18.6298 32.699 18.5698C32.795 18.5098 32.859 18.4599 32.891 18.3699C32.923 18.2799 32.955 18.1598 32.955 18.0698C32.955 17.9898 32.923 17.8998 32.923 17.8398C32.891 17.7498 32.827 17.6899 32.795 17.6599C32.731 17.5799 32.635 17.5499 32.539 17.5199C32.476 17.4899 32.348 17.4899 32.22 17.4899C32.06 17.4899 31.932 17.4899 31.804 17.5199C31.677 17.5799 31.581 17.6099 31.485 17.6599C31.389 17.6899 31.293 17.7499 31.229 17.7799C31.165 17.8099 31.101 17.8398 31.069 17.8398C31.038 17.8398 31.038 17.8398 31.006 17.8398C31.006 17.8098 30.974 17.8099 30.974 17.7799C30.974 17.7499 30.942 17.7199 30.942 17.6599V17.3398C30.942 17.3098 30.942 17.2499 30.942 17.2499C30.974 17.2199 30.974 17.1899 30.974 17.1699C31.006 17.1399 31.006 17.1399 31.038 17.1099C31.069 17.0799 31.133 17.0499 31.197 16.9899C31.293 16.9299 31.389 16.8999 31.549 16.8699C31.677 16.8099 31.804 16.7799 31.996 16.7599C32.156 16.6999 32.348 16.6998 32.539 16.6998C32.795 16.6998 33.019 16.7299 33.211 16.7799C33.402 16.8399 33.594 16.8999 33.722 17.0199C33.85 17.1099 33.978 17.2499 34.041 17.3999C34.105 17.5499 34.137 17.7199 34.137 17.8999C34.137 18.0499 34.137 18.1899 34.073 18.3099C34.041 18.4299 33.978 18.5399 33.882 18.6299C33.818 18.7499 33.722 18.8399 33.594 18.8999C33.466 18.9799 33.338 19.0099 33.179 19.0399V19.0698C33.37 19.0698 33.53 19.1298 33.69 19.1898C33.85 19.2498 33.978 19.3398 34.073 19.4498C34.169 19.5398 34.233 19.6599 34.297 19.7799C34.361 19.8899 34.393 20.0398 34.393 20.1898C34.393 20.4198 34.329 20.6299 34.233 20.7999C34.137 21.0099 33.978 21.1499 33.818 21.2699ZM34.393 40.1499C34.457 40.1499 34.489 40.1799 34.521 40.2699C34.553 40.2999 34.585 40.4199 34.585 40.5599C34.585 40.6799 34.553 40.7698 34.521 40.8298C34.489 40.9198 34.457 40.9398 34.393 40.9398H33.946V41.8198C33.946 41.8198 33.914 41.8499 33.914 41.8799C33.882 41.8799 33.85 41.9099 33.818 41.9099C33.786 41.9399 33.722 41.9398 33.658 41.9398C33.594 41.9398 33.498 41.9398 33.402 41.9398C33.306 41.9398 33.211 41.9398 33.147 41.9398C33.083 41.9398 33.051 41.9399 32.987 41.9099C32.955 41.9099 32.923 41.8799 32.923 41.8799C32.891 41.8499 32.891 41.8198 32.891 41.8198V40.9398H30.846C30.814 40.9398 30.782 40.9398 30.75 40.9398C30.718 40.9198 30.686 40.8899 30.686 40.8599C30.654 40.8299 30.654 40.7999 30.622 40.7399C30.622 40.6799 30.622 40.5899 30.622 40.4999C30.622 40.4199 30.622 40.3599 30.622 40.2999C30.622 40.2399 30.622 40.1799 30.654 40.1499C30.654 40.0899 30.654 40.0599 30.686 40.0099C30.686 39.9499 30.718 39.9199 30.75 39.8599L32.412 37.2499C32.412 37.2199 32.444 37.1898 32.476 37.1898C32.508 37.1598 32.539 37.1599 32.603 37.1599C32.667 37.1299 32.731 37.1299 32.827 37.0999H33.53C33.626 37.1299 33.69 37.1299 33.754 37.1599C33.818 37.1599 33.882 37.1898 33.882 37.1898C33.914 37.2198 33.946 37.2499 33.946 37.2799V40.1499H34.393ZM19.501 21.5898C19.469 21.5898 19.469 21.5599 19.437 21.5599C19.405 21.5599 19.405 21.5299 19.373 21.5099C19.373 21.4799 19.373 21.4499 19.341 21.3899C19.341 21.3299 19.341 21.2698 19.341 21.2098C19.341 21.1198 19.341 21.0699 19.341 21.0399C19.341 20.9799 19.373 20.9499 19.373 20.9199C19.405 20.8899 19.405 20.8599 19.437 20.8599C19.469 20.8299 19.469 20.8298 19.501 20.8298H20.492V17.7198L19.629 18.1299C19.565 18.1599 19.533 18.1898 19.469 18.1898C19.437 18.1898 19.405 18.1899 19.373 18.1599C19.373 18.1299 19.341 18.0999 19.341 18.0499C19.341 17.9899 19.341 17.9298 19.341 17.8398V17.6898C19.341 17.6598 19.341 17.6298 19.341 17.5798C19.373 17.5498 19.373 17.5499 19.405 17.5199C19.405 17.5199 19.437 17.4898 19.469 17.4598L20.62 16.8099C20.652 16.7799 20.652 16.7799 20.684 16.7799C20.684 16.7799 20.716 16.7599 20.748 16.7599C20.78 16.7599 20.843 16.7599 20.875 16.7599H21.099C21.195 16.7599 21.291 16.7599 21.355 16.7599C21.419 16.7599 21.451 16.7799 21.483 16.7799C21.515 16.7799 21.546 16.7799 21.546 16.8099C21.578 16.8099 21.578 16.8399 21.578 16.8699V20.8298H22.441C22.473 20.8298 22.505 20.8299 22.505 20.8599C22.537 20.8599 22.537 20.8899 22.569 20.9199C22.569 20.9499 22.601 20.9799 22.601 21.0399V21.2098C22.601 21.2698 22.601 21.3299 22.601 21.3899C22.601 21.4499 22.569 21.4799 22.569 21.5099C22.537 21.5299 22.537 21.5599 22.505 21.5599C22.505 21.5599 22.473 21.5898 22.441 21.5898H19.501ZM22.345 37.8099C22.409 37.9499 22.441 38.1299 22.441 38.3099C22.441 38.4799 22.409 38.6299 22.409 38.7699C22.377 38.9199 22.313 39.0699 22.186 39.2399C22.09 39.4199 21.93 39.6298 21.738 39.8298C21.546 40.0398 21.323 40.2999 21.003 40.5599L20.364 41.1499H22.473C22.505 41.1499 22.537 41.1499 22.537 41.1799C22.569 41.1799 22.601 41.2099 22.601 41.2399C22.633 41.2699 22.633 41.2999 22.665 41.3599C22.665 41.4099 22.665 41.4699 22.665 41.5299C22.665 41.6199 22.665 41.6798 22.665 41.7098C22.633 41.7698 22.633 41.8199 22.633 41.8499C22.601 41.8799 22.569 41.9099 22.569 41.9099C22.537 41.9099 22.505 41.9398 22.505 41.9398H19.405C19.373 41.9398 19.31 41.9399 19.246 41.9099C19.214 41.9099 19.182 41.8799 19.15 41.8499C19.118 41.8199 19.118 41.7899 19.086 41.7399C19.086 41.6799 19.086 41.6199 19.086 41.5299C19.086 41.4399 19.086 41.3798 19.086 41.3298C19.086 41.2698 19.118 41.2099 19.15 41.1499C19.15 41.1199 19.182 41.0599 19.214 41.0299C19.246 40.9699 19.31 40.9399 19.341 40.8899L20.3 39.9799C20.46 39.8299 20.62 39.6499 20.716 39.5099C20.843 39.3899 20.907 39.2399 21.003 39.1299C21.035 39.0099 21.099 38.9199 21.131 38.7999C21.131 38.7199 21.163 38.5999 21.163 38.5399C21.163 38.4499 21.131 38.3599 21.131 38.3099C21.067 38.2199 21.035 38.1599 20.971 38.0999C20.907 38.0399 20.843 38.0099 20.78 37.9799C20.684 37.9499 20.588 37.9199 20.46 37.9199C20.3 37.9199 20.172 37.9499 20.045 37.9799C19.917 38.0099 19.821 38.0699 19.693 38.0999C19.629 38.1599 19.533 38.1898 19.469 38.2198C19.405 38.2798 19.341 38.3099 19.31 38.3099C19.31 38.3099 19.278 38.2799 19.246 38.2799C19.246 38.2499 19.214 38.2198 19.214 38.1898C19.214 38.1598 19.182 38.1298 19.182 38.0698C19.182 38.0098 19.182 37.9198 19.182 37.8398V37.6898C19.182 37.6598 19.182 37.6299 19.214 37.5999C19.214 37.5699 19.214 37.5399 19.246 37.5099C19.246 37.5099 19.278 37.4798 19.31 37.4598C19.341 37.4298 19.405 37.3998 19.501 37.3398C19.597 37.2798 19.693 37.2498 19.853 37.1898C19.981 37.1598 20.14 37.1299 20.3 37.0999C20.428 37.0699 20.62 37.0399 20.78 37.0399C21.067 37.0399 21.323 37.0699 21.515 37.1599C21.738 37.2199 21.898 37.2799 22.026 37.3999C22.186 37.5099 22.281 37.6599 22.345 37.8099ZM44.299 15.1099C41.711 15.1099 39.634 16.9899 39.634 19.3099C39.634 21.1799 41.008 22.7699 42.925 23.2899V28.2499H33.978V23.2899C35.895 22.7699 37.269 21.1799 37.269 19.3099C37.269 16.9899 35.192 15.1099 32.603 15.1099C30.015 15.1099 27.938 16.9899 27.938 19.3099C27.938 21.1799 29.312 22.7699 31.229 23.2899V28.2499H22.313V23.2899C24.199 22.7699 25.573 21.1799 25.573 19.3099C25.573 16.9899 23.496 15.1099 20.907 15.1099C18.351 15.1099 16.242 16.9899 16.242 19.3099C16.242 21.1799 17.648 22.7699 19.533 23.2899V35.6699C17.648 36.1899 16.242 37.8099 16.242 39.6799C16.242 41.9999 18.351 43.8799 20.907 43.8799C23.496 43.8799 25.573 41.9999 25.573 39.6799C25.573 37.8099 24.199 36.1899 22.313 35.6699V30.7399H31.229V35.6699C29.312 36.1899 27.938 37.8099 27.938 39.6799C27.938 41.9999 30.015 43.8799 32.603 43.8799C35.192 43.8799 37.269 41.9999 37.269 39.6799C37.269 37.8099 35.895 36.1899 33.978 35.6699V30.7399H45.674V23.2899C47.559 22.7699 48.965 21.1799 48.965 19.3099C48.965 16.9899 46.856 15.1099 44.299 15.1099Z" fill="#EC1F36"/>
<path d="M53.024 42.0299C53.024 45.2299 50.148 47.8298 46.568 47.8298H18.639C15.059 47.8298 12.183 45.2299 12.183 42.0299V16.9299C12.183 13.7299 15.059 11.1299 18.639 11.1299H46.568C50.148 11.1299 53.024 13.7299 53.024 16.9299V42.0299ZM32.603 0.359863C14.708 0.359863 0.200012 13.3799 0.200012 29.4799C0.200012 45.5499 14.708 58.5999 32.603 58.5999C50.499 58.5999 65.007 45.5499 65.007 29.4799C65.007 13.3799 50.499 0.359863 32.603 0.359863Z" fill="#EC1F36"/>
<path d="M32.891 37.95V40.15H31.485L32.891 37.95Z" fill="#EC1F36"/>
<path d="M45.961 20.7098C45.865 20.9198 45.706 21.0899 45.514 21.2399C45.354 21.3599 45.13 21.4799 44.875 21.5599C44.619 21.6199 44.331 21.6799 44.012 21.6799C43.852 21.6799 43.692 21.6499 43.532 21.6499C43.405 21.6199 43.245 21.5899 43.149 21.5599C43.021 21.5299 42.925 21.5099 42.861 21.4799C42.766 21.4499 42.734 21.4499 42.702 21.4199C42.67 21.3899 42.67 21.3599 42.638 21.3599C42.638 21.3299 42.638 21.2999 42.638 21.2699C42.606 21.2399 42.606 21.2099 42.606 21.1499C42.606 21.0899 42.606 21.0699 42.606 21.0099C42.606 20.9199 42.606 20.8599 42.606 20.7999C42.638 20.7699 42.638 20.7399 42.638 20.6799C42.67 20.6499 42.67 20.6499 42.67 20.6299C42.702 20.6299 42.702 20.6299 42.734 20.6299C42.766 20.6299 42.829 20.6299 42.861 20.6499C42.925 20.6799 42.989 20.7099 43.085 20.7399C43.181 20.7999 43.309 20.8299 43.437 20.8599C43.564 20.8599 43.724 20.8899 43.884 20.8899C44.044 20.8899 44.204 20.8598 44.331 20.8298C44.459 20.7998 44.587 20.7699 44.683 20.6799C44.747 20.6299 44.843 20.5698 44.875 20.4498C44.939 20.3598 44.971 20.2399 44.971 20.0999C44.971 19.9799 44.939 19.8899 44.875 19.7799C44.843 19.6899 44.779 19.5999 44.683 19.5399C44.619 19.4799 44.491 19.4499 44.363 19.3899C44.204 19.3599 44.044 19.3599 43.852 19.3599C43.692 19.3599 43.532 19.3599 43.405 19.3899C43.277 19.3899 43.149 19.3899 43.053 19.3899C42.957 19.3899 42.893 19.3898 42.861 19.3398C42.829 19.3098 42.829 19.2499 42.829 19.1299V17.0499C42.829 16.9599 42.829 16.8998 42.893 16.8398C42.925 16.8098 42.989 16.7799 43.085 16.7799H45.61C45.642 16.7799 45.674 16.7799 45.674 16.8099C45.706 16.8099 45.737 16.8399 45.737 16.8699C45.737 16.8999 45.769 16.9599 45.769 17.0199C45.769 17.0499 45.801 17.1098 45.801 17.1898C45.801 17.3398 45.769 17.4599 45.737 17.5199C45.706 17.5799 45.674 17.6299 45.61 17.6299H43.724V18.6299C43.82 18.6299 43.916 18.6299 44.012 18.6299C44.108 18.6299 44.204 18.6299 44.299 18.6299C44.587 18.6299 44.843 18.6598 45.066 18.7198C45.29 18.7798 45.482 18.8699 45.642 18.9799C45.801 19.0999 45.897 19.2499 45.993 19.4199C46.057 19.5999 46.089 19.7999 46.089 20.0099C46.089 20.2999 46.057 20.5098 45.961 20.7098ZM33.818 21.2699C33.626 21.4199 33.402 21.5099 33.147 21.5599C32.891 21.6499 32.635 21.6799 32.316 21.6799C32.156 21.6799 31.964 21.6499 31.804 21.6199C31.645 21.5899 31.517 21.5599 31.389 21.5299C31.261 21.5099 31.165 21.4798 31.069 21.4498C31.006 21.4198 30.942 21.3599 30.91 21.3599C30.91 21.3299 30.878 21.2999 30.878 21.2999C30.846 21.2699 30.846 21.2398 30.846 21.2098C30.846 21.1798 30.814 21.1198 30.814 21.0698C30.814 21.0398 30.814 20.9799 30.814 20.8899C30.814 20.7699 30.814 20.6799 30.846 20.6499C30.878 20.5999 30.91 20.5698 30.942 20.5698C30.974 20.5698 31.006 20.5999 31.069 20.6299C31.165 20.6499 31.229 20.6799 31.357 20.7399C31.453 20.7699 31.581 20.7998 31.709 20.8298C31.868 20.8598 32.028 20.8899 32.188 20.8899C32.348 20.8899 32.476 20.8598 32.571 20.8298C32.699 20.7998 32.795 20.7698 32.891 20.7098C32.955 20.6498 33.019 20.5699 33.051 20.4799C33.115 20.4199 33.147 20.3298 33.147 20.2098C33.147 20.0998 33.083 20.0099 33.051 19.9199C33.019 19.8299 32.923 19.7498 32.827 19.6898C32.731 19.6298 32.635 19.5699 32.476 19.5399C32.348 19.5099 32.156 19.4799 31.964 19.4799H31.517C31.485 19.4799 31.453 19.4799 31.421 19.4799C31.389 19.4799 31.357 19.4499 31.357 19.4199C31.357 19.3899 31.325 19.3599 31.325 19.3099C31.325 19.2799 31.325 19.2199 31.325 19.1299C31.325 19.0399 31.325 18.9798 31.325 18.9498C31.325 18.8998 31.357 18.8698 31.357 18.8398C31.357 18.8098 31.389 18.8099 31.421 18.8099C31.453 18.7799 31.453 18.7799 31.485 18.7799H31.964C32.124 18.7799 32.252 18.7498 32.38 18.7198C32.508 18.6898 32.635 18.6298 32.699 18.5698C32.795 18.5098 32.859 18.4599 32.891 18.3699C32.923 18.2799 32.955 18.1598 32.955 18.0698C32.955 17.9898 32.923 17.8998 32.923 17.8398C32.891 17.7498 32.827 17.6899 32.795 17.6599C32.731 17.5799 32.635 17.5499 32.539 17.5199C32.476 17.4899 32.348 17.4899 32.22 17.4899C32.06 17.4899 31.932 17.4899 31.804 17.5199C31.677 17.5799 31.581 17.6099 31.485 17.6599C31.389 17.6899 31.293 17.7499 31.229 17.7799C31.165 17.8099 31.101 17.8398 31.069 17.8398C31.038 17.8398 31.038 17.8398 31.006 17.8398C31.006 17.8098 30.974 17.8099 30.974 17.7799C30.974 17.7499 30.942 17.7199 30.942 17.6599V17.3398C30.942 17.3098 30.942 17.2499 30.942 17.2499C30.974 17.2199 30.974 17.1899 30.974 17.1699C31.006 17.1399 31.006 17.1399 31.038 17.1099C31.069 17.0799 31.133 17.0499 31.197 16.9899C31.293 16.9299 31.389 16.8999 31.549 16.8699C31.677 16.8099 31.804 16.7799 31.996 16.7599C32.156 16.6999 32.348 16.6998 32.539 16.6998C32.795 16.6998 33.019 16.7299 33.211 16.7799C33.402 16.8399 33.594 16.8999 33.722 17.0199C33.85 17.1099 33.978 17.2499 34.041 17.3999C34.105 17.5499 34.137 17.7199 34.137 17.8999C34.137 18.0499 34.137 18.1899 34.073 18.3099C34.041 18.4299 33.978 18.5399 33.882 18.6299C33.818 18.7499 33.722 18.8399 33.594 18.8999C33.466 18.9799 33.338 19.0099 33.179 19.0399V19.0698C33.37 19.0698 33.53 19.1298 33.69 19.1898C33.85 19.2498 33.978 19.3398 34.073 19.4498C34.169 19.5398 34.233 19.6599 34.297 19.7799C34.361 19.8899 34.393 20.0398 34.393 20.1898C34.393 20.4198 34.329 20.6299 34.233 20.7999C34.137 21.0099 33.978 21.1499 33.818 21.2699ZM34.393 40.1499C34.457 40.1499 34.489 40.1799 34.521 40.2699C34.553 40.2999 34.585 40.4199 34.585 40.5599C34.585 40.6799 34.553 40.7698 34.521 40.8298C34.489 40.9198 34.457 40.9398 34.393 40.9398H33.946V41.8198C33.946 41.8198 33.914 41.8499 33.914 41.8799C33.882 41.8799 33.85 41.9099 33.818 41.9099C33.786 41.9399 33.722 41.9398 33.658 41.9398C33.594 41.9398 33.498 41.9398 33.402 41.9398C33.306 41.9398 33.211 41.9398 33.147 41.9398C33.083 41.9398 33.051 41.9399 32.987 41.9099C32.955 41.9099 32.923 41.8799 32.923 41.8799C32.891 41.8499 32.891 41.8198 32.891 41.8198V40.9398H30.846C30.814 40.9398 30.782 40.9398 30.75 40.9398C30.718 40.9198 30.686 40.8899 30.686 40.8599C30.654 40.8299 30.654 40.7999 30.622 40.7399C30.622 40.6799 30.622 40.5899 30.622 40.4999C30.622 40.4199 30.622 40.3599 30.622 40.2999C30.622 40.2399 30.622 40.1799 30.654 40.1499C30.654 40.0899 30.654 40.0599 30.686 40.0099C30.686 39.9499 30.718 39.9199 30.75 39.8599L32.412 37.2499C32.412 37.2199 32.444 37.1898 32.476 37.1898C32.508 37.1598 32.539 37.1599 32.603 37.1599C32.667 37.1299 32.731 37.1299 32.827 37.0999H33.53C33.626 37.1299 33.69 37.1299 33.754 37.1599C33.818 37.1599 33.882 37.1898 33.882 37.1898C33.914 37.2198 33.946 37.2499 33.946 37.2799V40.1499H34.393ZM19.501 21.5898C19.469 21.5898 19.469 21.5599 19.437 21.5599C19.405 21.5599 19.405 21.5299 19.373 21.5099C19.373 21.4799 19.373 21.4499 19.341 21.3899C19.341 21.3299 19.341 21.2698 19.341 21.2098C19.341 21.1198 19.341 21.0699 19.341 21.0399C19.341 20.9799 19.373 20.9499 19.373 20.9199C19.405 20.8899 19.405 20.8599 19.437 20.8599C19.469 20.8299 19.469 20.8298 19.501 20.8298H20.492V17.7198L19.629 18.1299C19.565 18.1599 19.533 18.1898 19.469 18.1898C19.437 18.1898 19.405 18.1899 19.373 18.1599C19.373 18.1299 19.341 18.0999 19.341 18.0499C19.341 17.9899 19.341 17.9298 19.341 17.8398V17.6898C19.341 17.6598 19.341 17.6298 19.341 17.5798C19.373 17.5498 19.373 17.5499 19.405 17.5199C19.405 17.5199 19.437 17.4898 19.469 17.4598L20.62 16.8099C20.652 16.7799 20.652 16.7799 20.684 16.7799C20.684 16.7799 20.716 16.7599 20.748 16.7599C20.78 16.7599 20.843 16.7599 20.875 16.7599H21.099C21.195 16.7599 21.291 16.7599 21.355 16.7599C21.419 16.7599 21.451 16.7799 21.483 16.7799C21.515 16.7799 21.546 16.7799 21.546 16.8099C21.578 16.8099 21.578 16.8399 21.578 16.8699V20.8298H22.441C22.473 20.8298 22.505 20.8299 22.505 20.8599C22.537 20.8599 22.537 20.8899 22.569 20.9199C22.569 20.9499 22.601 20.9799 22.601 21.0399V21.2098C22.601 21.2698 22.601 21.3299 22.601 21.3899C22.601 21.4499 22.569 21.4799 22.569 21.5099C22.537 21.5299 22.537 21.5599 22.505 21.5599C22.505 21.5599 22.473 21.5898 22.441 21.5898H19.501ZM22.345 37.8099C22.409 37.9499 22.441 38.1299 22.441 38.3099C22.441 38.4799 22.409 38.6299 22.409 38.7699C22.377 38.9199 22.313 39.0699 22.186 39.2399C22.09 39.4199 21.93 39.6298 21.738 39.8298C21.546 40.0398 21.323 40.2999 21.003 40.5599L20.364 41.1499H22.473C22.505 41.1499 22.537 41.1499 22.537 41.1799C22.569 41.1799 22.601 41.2099 22.601 41.2399C22.633 41.2699 22.633 41.2999 22.665 41.3599C22.665 41.4099 22.665 41.4699 22.665 41.5299C22.665 41.6199 22.665 41.6798 22.665 41.7098C22.633 41.7698 22.633 41.8199 22.633 41.8499C22.601 41.8799 22.569 41.9099 22.569 41.9099C22.537 41.9099 22.505 41.9398 22.505 41.9398H19.405C19.373 41.9398 19.31 41.9399 19.246 41.9099C19.214 41.9099 19.182 41.8799 19.15 41.8499C19.118 41.8199 19.118 41.7899 19.086 41.7399C19.086 41.6799 19.086 41.6199 19.086 41.5299C19.086 41.4399 19.086 41.3798 19.086 41.3298C19.086 41.2698 19.118 41.2099 19.15 41.1499C19.15 41.1199 19.182 41.0599 19.214 41.0299C19.246 40.9699 19.31 40.9399 19.341 40.8899L20.3 39.9799C20.46 39.8299 20.62 39.6499 20.716 39.5099C20.843 39.3899 20.907 39.2399 21.003 39.1299C21.035 39.0099 21.099 38.9199 21.131 38.7999C21.131 38.7199 21.163 38.5999 21.163 38.5399C21.163 38.4499 21.131 38.3599 21.131 38.3099C21.067 38.2199 21.035 38.1599 20.971 38.0999C20.907 38.0399 20.843 38.0099 20.78 37.9799C20.684 37.9499 20.588 37.9199 20.46 37.9199C20.3 37.9199 20.172 37.9499 20.045 37.9799C19.917 38.0099 19.821 38.0699 19.693 38.0999C19.629 38.1599 19.533 38.1898 19.469 38.2198C19.405 38.2798 19.341 38.3099 19.31 38.3099C19.31 38.3099 19.278 38.2799 19.246 38.2799C19.246 38.2499 19.214 38.2198 19.214 38.1898C19.214 38.1598 19.182 38.1298 19.182 38.0698C19.182 38.0098 19.182 37.9198 19.182 37.8398V37.6898C19.182 37.6598 19.182 37.6299 19.214 37.5999C19.214 37.5699 19.214 37.5399 19.246 37.5099C19.246 37.5099 19.278 37.4798 19.31 37.4598C19.341 37.4298 19.405 37.3998 19.501 37.3398C19.597 37.2798 19.693 37.2498 19.853 37.1898C19.981 37.1598 20.14 37.1299 20.3 37.0999C20.428 37.0699 20.62 37.0399 20.78 37.0399C21.067 37.0399 21.323 37.0699 21.515 37.1599C21.738 37.2199 21.898 37.2799 22.026 37.3999C22.186 37.5099 22.281 37.6599 22.345 37.8099ZM44.299 15.1099C41.711 15.1099 39.634 16.9899 39.634 19.3099C39.634 21.1799 41.008 22.7699 42.925 23.2899V28.2499H33.978V23.2899C35.895 22.7699 37.269 21.1799 37.269 19.3099C37.269 16.9899 35.192 15.1099 32.603 15.1099C30.015 15.1099 27.938 16.9899 27.938 19.3099C27.938 21.1799 29.312 22.7699 31.229 23.2899V28.2499H22.313V23.2899C24.199 22.7699 25.573 21.1799 25.573 19.3099C25.573 16.9899 23.496 15.1099 20.907 15.1099C18.351 15.1099 16.242 16.9899 16.242 19.3099C16.242 21.1799 17.648 22.7699 19.533 23.2899V35.6699C17.648 36.1899 16.242 37.8099 16.242 39.6799C16.242 41.9999 18.351 43.8799 20.907 43.8799C23.496 43.8799 25.573 41.9999 25.573 39.6799C25.573 37.8099 24.199 36.1899 22.313 35.6699V30.7399H31.229V35.6699C29.312 36.1899 27.938 37.8099 27.938 39.6799C27.938 41.9999 30.015 43.8799 32.603 43.8799C35.192 43.8799 37.269 41.9999 37.269 39.6799C37.269 37.8099 35.895 36.1899 33.978 35.6699V30.7399H45.674V23.2899C47.559 22.7699 48.965 21.1799 48.965 19.3099C48.965 16.9899 46.856 15.1099 44.299 15.1099Z" fill="#EC1F36"/>
<path d="M32.891 37.95V40.15H31.485L32.891 37.95Z" fill="#EC1F36"/>
<path d="M45.961 20.7098C45.865 20.9198 45.706 21.0899 45.514 21.2399C45.354 21.3599 45.13 21.4799 44.875 21.5599C44.619 21.6199 44.331 21.6799 44.012 21.6799C43.852 21.6799 43.692 21.6499 43.532 21.6499C43.405 21.6199 43.245 21.5899 43.149 21.5599C43.021 21.5299 42.925 21.5099 42.861 21.4799C42.766 21.4499 42.734 21.4499 42.702 21.4199C42.67 21.3899 42.67 21.3599 42.638 21.3599C42.638 21.3299 42.638 21.2999 42.638 21.2699C42.606 21.2399 42.606 21.2099 42.606 21.1499C42.606 21.0899 42.606 21.0699 42.606 21.0099C42.606 20.9199 42.606 20.8599 42.606 20.7999C42.638 20.7699 42.638 20.7399 42.638 20.6799C42.67 20.6499 42.67 20.6499 42.67 20.6299C42.702 20.6299 42.702 20.6299 42.734 20.6299C42.766 20.6299 42.829 20.6299 42.861 20.6499C42.925 20.6799 42.989 20.7099 43.085 20.7399C43.181 20.7999 43.309 20.8299 43.437 20.8599C43.564 20.8599 43.724 20.8899 43.884 20.8899C44.044 20.8899 44.204 20.8598 44.331 20.8298C44.459 20.7998 44.587 20.7699 44.683 20.6799C44.747 20.6299 44.843 20.5698 44.875 20.4498C44.939 20.3598 44.971 20.2399 44.971 20.0999C44.971 19.9799 44.939 19.8899 44.875 19.7799C44.843 19.6899 44.779 19.5999 44.683 19.5399C44.619 19.4799 44.491 19.4499 44.363 19.3899C44.204 19.3599 44.044 19.3599 43.852 19.3599C43.692 19.3599 43.532 19.3599 43.405 19.3899C43.277 19.3899 43.149 19.3899 43.053 19.3899C42.957 19.3899 42.893 19.3898 42.861 19.3398C42.829 19.3098 42.829 19.2499 42.829 19.1299V17.0499C42.829 16.9599 42.829 16.8998 42.893 16.8398C42.925 16.8098 42.989 16.7799 43.085 16.7799H45.61C45.642 16.7799 45.674 16.7799 45.674 16.8099C45.706 16.8099 45.737 16.8399 45.737 16.8699C45.737 16.8999 45.769 16.9599 45.769 17.0199C45.769 17.0499 45.801 17.1098 45.801 17.1898C45.801 17.3398 45.769 17.4599 45.737 17.5199C45.706 17.5799 45.674 17.6299 45.61 17.6299H43.724V18.6299C43.82 18.6299 43.916 18.6299 44.012 18.6299C44.108 18.6299 44.204 18.6299 44.299 18.6299C44.587 18.6299 44.843 18.6598 45.066 18.7198C45.29 18.7798 45.482 18.8699 45.642 18.9799C45.801 19.0999 45.897 19.2499 45.993 19.4199C46.057 19.5999 46.089 19.7999 46.089 20.0099C46.089 20.2999 46.057 20.5098 45.961 20.7098ZM33.818 21.2699C33.626 21.4199 33.402 21.5099 33.147 21.5599C32.891 21.6499 32.635 21.6799 32.316 21.6799C32.156 21.6799 31.964 21.6499 31.804 21.6199C31.645 21.5899 31.517 21.5599 31.389 21.5299C31.261 21.5099 31.165 21.4798 31.069 21.4498C31.006 21.4198 30.942 21.3599 30.91 21.3599C30.91 21.3299 30.878 21.2999 30.878 21.2999C30.846 21.2699 30.846 21.2398 30.846 21.2098C30.846 21.1798 30.814 21.1198 30.814 21.0698C30.814 21.0398 30.814 20.9799 30.814 20.8899C30.814 20.7699 30.814 20.6799 30.846 20.6499C30.878 20.5999 30.91 20.5698 30.942 20.5698C30.974 20.5698 31.006 20.5999 31.069 20.6299C31.165 20.6499 31.229 20.6799 31.357 20.7399C31.453 20.7699 31.581 20.7998 31.709 20.8298C31.868 20.8598 32.028 20.8899 32.188 20.8899C32.348 20.8899 32.476 20.8598 32.571 20.8298C32.699 20.7998 32.795 20.7698 32.891 20.7098C32.955 20.6498 33.019 20.5699 33.051 20.4799C33.115 20.4199 33.147 20.3298 33.147 20.2098C33.147 20.0998 33.083 20.0099 33.051 19.9199C33.019 19.8299 32.923 19.7498 32.827 19.6898C32.731 19.6298 32.635 19.5699 32.476 19.5399C32.348 19.5099 32.156 19.4799 31.964 19.4799H31.517C31.485 19.4799 31.453 19.4799 31.421 19.4799C31.389 19.4799 31.357 19.4499 31.357 19.4199C31.357 19.3899 31.325 19.3599 31.325 19.3099C31.325 19.2799 31.325 19.2199 31.325 19.1299C31.325 19.0399 31.325 18.9798 31.325 18.9498C31.325 18.8998 31.357 18.8698 31.357 18.8398C31.357 18.8098 31.389 18.8099 31.421 18.8099C31.453 18.7799 31.453 18.7799 31.485 18.7799H31.964C32.124 18.7799 32.252 18.7498 32.38 18.7198C32.508 18.6898 32.635 18.6298 32.699 18.5698C32.795 18.5098 32.859 18.4599 32.891 18.3699C32.923 18.2799 32.955 18.1598 32.955 18.0698C32.955 17.9898 32.923 17.8998 32.923 17.8398C32.891 17.7498 32.827 17.6899 32.795 17.6599C32.731 17.5799 32.635 17.5499 32.539 17.5199C32.476 17.4899 32.348 17.4899 32.22 17.4899C32.06 17.4899 31.932 17.4899 31.804 17.5199C31.677 17.5799 31.581 17.6099 31.485 17.6599C31.389 17.6899 31.293 17.7499 31.229 17.7799C31.165 17.8099 31.101 17.8398 31.069 17.8398C31.038 17.8398 31.038 17.8398 31.006 17.8398C31.006 17.8098 30.974 17.8099 30.974 17.7799C30.974 17.7499 30.942 17.7199 30.942 17.6599V17.3398C30.942 17.3098 30.942 17.2499 30.942 17.2499C30.974 17.2199 30.974 17.1899 30.974 17.1699C31.006 17.1399 31.006 17.1399 31.038 17.1099C31.069 17.0799 31.133 17.0499 31.197 16.9899C31.293 16.9299 31.389 16.8999 31.549 16.8699C31.677 16.8099 31.804 16.7799 31.996 16.7599C32.156 16.6999 32.348 16.6998 32.539 16.6998C32.795 16.6998 33.019 16.7299 33.211 16.7799C33.402 16.8399 33.594 16.8999 33.722 17.0199C33.85 17.1099 33.978 17.2499 34.041 17.3999C34.105 17.5499 34.137 17.7199 34.137 17.8999C34.137 18.0499 34.137 18.1899 34.073 18.3099C34.041 18.4299 33.978 18.5399 33.882 18.6299C33.818 18.7499 33.722 18.8399 33.594 18.8999C33.466 18.9799 33.338 19.0099 33.179 19.0399V19.0698C33.37 19.0698 33.53 19.1298 33.69 19.1898C33.85 19.2498 33.978 19.3398 34.073 19.4498C34.169 19.5398 34.233 19.6599 34.297 19.7799C34.361 19.8899 34.393 20.0398 34.393 20.1898C34.393 20.4198 34.329 20.6299 34.233 20.7999C34.137 21.0099 33.978 21.1499 33.818 21.2699ZM34.393 40.1499C34.457 40.1499 34.489 40.1799 34.521 40.2699C34.553 40.2999 34.585 40.4199 34.585 40.5599C34.585 40.6799 34.553 40.7698 34.521 40.8298C34.489 40.9198 34.457 40.9398 34.393 40.9398H33.946V41.8198C33.946 41.8198 33.914 41.8499 33.914 41.8799C33.882 41.8799 33.85 41.9099 33.818 41.9099C33.786 41.9399 33.722 41.9398 33.658 41.9398C33.594 41.9398 33.498 41.9398 33.402 41.9398C33.306 41.9398 33.211 41.9398 33.147 41.9398C33.083 41.9398 33.051 41.9399 32.987 41.9099C32.955 41.9099 32.923 41.8799 32.923 41.8799C32.891 41.8499 32.891 41.8198 32.891 41.8198V40.9398H30.846C30.814 40.9398 30.782 40.9398 30.75 40.9398C30.718 40.9198 30.686 40.8899 30.686 40.8599C30.654 40.8299 30.654 40.7999 30.622 40.7399C30.622 40.6799 30.622 40.5899 30.622 40.4999C30.622 40.4199 30.622 40.3599 30.622 40.2999C30.622 40.2399 30.622 40.1799 30.654 40.1499C30.654 40.0899 30.654 40.0599 30.686 40.0099C30.686 39.9499 30.718 39.9199 30.75 39.8599L32.412 37.2499C32.412 37.2199 32.444 37.1898 32.476 37.1898C32.508 37.1598 32.539 37.1599 32.603 37.1599C32.667 37.1299 32.731 37.1299 32.827 37.0999H33.53C33.626 37.1299 33.69 37.1299 33.754 37.1599C33.818 37.1599 33.882 37.1898 33.882 37.1898C33.914 37.2198 33.946 37.2499 33.946 37.2799V40.1499H34.393ZM19.501 21.5898C19.469 21.5898 19.469 21.5599 19.437 21.5599C19.405 21.5599 19.405 21.5299 19.373 21.5099C19.373 21.4799 19.373 21.4499 19.341 21.3899C19.341 21.3299 19.341 21.2698 19.341 21.2098C19.341 21.1198 19.341 21.0699 19.341 21.0399C19.341 20.9799 19.373 20.9499 19.373 20.9199C19.405 20.8899 19.405 20.8599 19.437 20.8599C19.469 20.8299 19.469 20.8298 19.501 20.8298H20.492V17.7198L19.629 18.1299C19.565 18.1599 19.533 18.1898 19.469 18.1898C19.437 18.1898 19.405 18.1899 19.373 18.1599C19.373 18.1299 19.341 18.0999 19.341 18.0499C19.341 17.9899 19.341 17.9298 19.341 17.8398V17.6898C19.341 17.6598 19.341 17.6298 19.341 17.5798C19.373 17.5498 19.373 17.5499 19.405 17.5199C19.405 17.5199 19.437 17.4898 19.469 17.4598L20.62 16.8099C20.652 16.7799 20.652 16.7799 20.684 16.7799C20.684 16.7799 20.716 16.7599 20.748 16.7599C20.78 16.7599 20.843 16.7599 20.875 16.7599H21.099C21.195 16.7599 21.291 16.7599 21.355 16.7599C21.419 16.7599 21.451 16.7799 21.483 16.7799C21.515 16.7799 21.546 16.7799 21.546 16.8099C21.578 16.8099 21.578 16.8399 21.578 16.8699V20.8298H22.441C22.473 20.8298 22.505 20.8299 22.505 20.8599C22.537 20.8599 22.537 20.8899 22.569 20.9199C22.569 20.9499 22.601 20.9799 22.601 21.0399V21.2098C22.601 21.2698 22.601 21.3299 22.601 21.3899C22.601 21.4499 22.569 21.4799 22.569 21.5099C22.537 21.5299 22.537 21.5599 22.505 21.5599C22.505 21.5599 22.473 21.5898 22.441 21.5898H19.501ZM22.345 37.8099C22.409 37.9499 22.441 38.1299 22.441 38.3099C22.441 38.4799 22.409 38.6299 22.409 38.7699C22.377 38.9199 22.313 39.0699 22.186 39.2399C22.09 39.4199 21.93 39.6298 21.738 39.8298C21.546 40.0398 21.323 40.2999 21.003 40.5599L20.364 41.1499H22.473C22.505 41.1499 22.537 41.1499 22.537 41.1799C22.569 41.1799 22.601 41.2099 22.601 41.2399C22.633 41.2699 22.633 41.2999 22.665 41.3599C22.665 41.4099 22.665 41.4699 22.665 41.5299C22.665 41.6199 22.665 41.6798 22.665 41.7098C22.633 41.7698 22.633 41.8199 22.633 41.8499C22.601 41.8799 22.569 41.9099 22.569 41.9099C22.537 41.9099 22.505 41.9398 22.505 41.9398H19.405C19.373 41.9398 19.31 41.9399 19.246 41.9099C19.214 41.9099 19.182 41.8799 19.15 41.8499C19.118 41.8199 19.118 41.7899 19.086 41.7399C19.086 41.6799 19.086 41.6199 19.086 41.5299C19.086 41.4399 19.086 41.3798 19.086 41.3298C19.086 41.2698 19.118 41.2099 19.15 41.1499C19.15 41.1199 19.182 41.0599 19.214 41.0299C19.246 40.9699 19.31 40.9399 19.341 40.8899L20.3 39.9799C20.46 39.8299 20.62 39.6499 20.716 39.5099C20.843 39.3899 20.907 39.2399 21.003 39.1299C21.035 39.0099 21.099 38.9199 21.131 38.7999C21.131 38.7199 21.163 38.5999 21.163 38.5399C21.163 38.4499 21.131 38.3599 21.131 38.3099C21.067 38.2199 21.035 38.1599 20.971 38.0999C20.907 38.0399 20.843 38.0099 20.78 37.9799C20.684 37.9499 20.588 37.9199 20.46 37.9199C20.3 37.9199 20.172 37.9499 20.045 37.9799C19.917 38.0099 19.821 38.0699 19.693 38.0999C19.629 38.1599 19.533 38.1898 19.469 38.2198C19.405 38.2798 19.341 38.3099 19.31 38.3099C19.31 38.3099 19.278 38.2799 19.246 38.2799C19.246 38.2499 19.214 38.2198 19.214 38.1898C19.214 38.1598 19.182 38.1298 19.182 38.0698C19.182 38.0098 19.182 37.9198 19.182 37.8398V37.6898C19.182 37.6598 19.182 37.6299 19.214 37.5999C19.214 37.5699 19.214 37.5399 19.246 37.5099C19.246 37.5099 19.278 37.4798 19.31 37.4598C19.341 37.4298 19.405 37.3998 19.501 37.3398C19.597 37.2798 19.693 37.2498 19.853 37.1898C19.981 37.1598 20.14 37.1299 20.3 37.0999C20.428 37.0699 20.62 37.0399 20.78 37.0399C21.067 37.0399 21.323 37.0699 21.515 37.1599C21.738 37.2199 21.898 37.2799 22.026 37.3999C22.186 37.5099 22.281 37.6599 22.345 37.8099ZM44.299 15.1099C41.711 15.1099 39.634 16.9899 39.634 19.3099C39.634 21.1799 41.008 22.7699 42.925 23.2899V28.2499H33.978V23.2899C35.895 22.7699 37.269 21.1799 37.269 19.3099C37.269 16.9899 35.192 15.1099 32.603 15.1099C30.015 15.1099 27.938 16.9899 27.938 19.3099C27.938 21.1799 29.312 22.7699 31.229 23.2899V28.2499H22.313V23.2899C24.199 22.7699 25.573 21.1799 25.573 19.3099C25.573 16.9899 23.496 15.1099 20.907 15.1099C18.351 15.1099 16.242 16.9899 16.242 19.3099C16.242 21.1799 17.648 22.7699 19.533 23.2899V35.6699C17.648 36.1899 16.242 37.8099 16.242 39.6799C16.242 41.9999 18.351 43.8799 20.907 43.8799C23.496 43.8799 25.573 41.9999 25.573 39.6799C25.573 37.8099 24.199 36.1899 22.313 35.6699V30.7399H31.229V35.6699C29.312 36.1899 27.938 37.8099 27.938 39.6799C27.938 41.9999 30.015 43.8799 32.603 43.8799C35.192 43.8799 37.269 41.9999 37.269 39.6799C37.269 37.8099 35.895 36.1899 33.978 35.6699V30.7399H45.674V23.2899C47.559 22.7699 48.965 21.1799 48.965 19.3099C48.965 16.9899 46.856 15.1099 44.299 15.1099Z" fill="#EC1F36"/>
<path d="M45.354 38.54C45.322 38.63 45.226 38.72 45.162 38.77C45.066 38.86 44.971 38.92 44.811 38.95C44.683 38.98 44.523 39.01 44.331 39.01H43.692V37.4301H44.268C44.395 37.4301 44.523 37.4301 44.587 37.4301C44.683 37.4301 44.747 37.46 44.843 37.46C45.034 37.51 45.194 37.6 45.29 37.72C45.386 37.87 45.418 38.0099 45.418 38.1899C45.418 38.3299 45.386 38.42 45.354 38.54ZM47.048 41.88C47.016 41.85 46.984 41.77 46.952 41.65L46.409 40.53C46.345 40.42 46.281 40.3001 46.217 40.1801C46.153 40.0901 46.089 39.98 46.025 39.92C45.961 39.83 45.865 39.7401 45.801 39.6801C45.706 39.6301 45.61 39.6 45.514 39.54C45.706 39.48 45.897 39.42 46.057 39.33C46.185 39.24 46.313 39.13 46.409 39.01C46.536 38.89 46.6 38.75 46.664 38.6C46.696 38.45 46.728 38.28 46.728 38.1C46.728 37.87 46.696 37.66 46.632 37.48C46.536 37.31 46.441 37.16 46.313 37.04C46.153 36.93 45.993 36.81 45.801 36.75C45.578 36.66 45.354 36.61 45.13 36.58C45.034 36.58 44.939 36.55 44.843 36.55C44.715 36.55 44.587 36.55 44.427 36.55H42.798C42.702 36.55 42.606 36.58 42.542 36.63C42.478 36.69 42.414 36.78 42.414 36.9V42C42.414 42.03 42.446 42.06 42.446 42.09C42.478 42.12 42.51 42.12 42.542 42.15C42.606 42.15 42.67 42.1501 42.766 42.1801C42.829 42.1801 42.957 42.1801 43.053 42.1801C43.181 42.1801 43.309 42.1801 43.373 42.1801C43.469 42.1501 43.501 42.15 43.564 42.15C43.628 42.12 43.66 42.12 43.66 42.09C43.692 42.06 43.692 42.03 43.692 42V39.86H44.076C44.236 39.86 44.363 39.89 44.459 39.92C44.555 39.95 44.651 40.01 44.715 40.09C44.811 40.15 44.875 40.27 44.939 40.36C45.003 40.48 45.066 40.59 45.13 40.74L45.706 42C45.706 42.03 45.738 42.06 45.738 42.09C45.769 42.12 45.801 42.12 45.833 42.15C45.897 42.15 45.961 42.1801 46.025 42.1801C46.121 42.1801 46.217 42.1801 46.345 42.1801C46.504 42.1801 46.664 42.1801 46.728 42.1801C46.824 42.1801 46.888 42.15 46.952 42.15C47.016 42.12 47.016 42.12 47.048 42.09C47.048 42.06 47.048 42.06 47.048 42.03C47.048 41.97 47.048 41.94 47.048 41.88Z" fill="#EC1F36"/>
</svg>
