<svg width="37" height="36" viewBox="0 0 37 36" fill="none" xmlns="http://www.w3.org/2000/svg">
<path d="M31.908 19.7325L29.856 13.5765C29.5583 12.6802 28.9858 11.9005 28.2197 11.3483C27.4536 10.796 26.5329 10.4992 25.5885 10.5H11.9115C10.9671 10.4992 10.0464 10.796 9.28033 11.3483C8.51423 11.9005 7.94167 12.6802 7.644 13.5765L5.592 19.7325C5.04645 19.961 4.58057 20.3456 4.25285 20.8379C3.92514 21.3303 3.7502 21.9085 3.75 22.5V27C3.75 28.107 4.356 29.064 5.25 29.5845V31.5C5.25 31.8978 5.40804 32.2794 5.68934 32.5607C5.97064 32.842 6.35218 33 6.75 33H8.25C8.64782 33 9.02936 32.842 9.31066 32.5607C9.59196 32.2794 9.75 31.8978 9.75 31.5V30H27.75V31.5C27.75 31.8978 27.908 32.2794 28.1893 32.5607C28.4706 32.842 28.8522 33 29.25 33H30.75C31.1478 33 31.5294 32.842 31.8107 32.5607C32.092 32.2794 32.25 31.8978 32.25 31.5V29.5845C32.7051 29.3235 33.0834 28.9472 33.3467 28.4935C33.61 28.0397 33.7491 27.5246 33.75 27V22.5C33.75 21.2535 32.9895 20.187 31.908 19.7325ZM11.9115 13.5H25.587C25.9019 13.4999 26.2089 13.599 26.4644 13.7831C26.7199 13.9673 26.911 14.2272 27.0105 14.526L28.6695 19.5H8.8305L10.488 14.526C10.6935 13.9125 11.2665 13.5 11.9115 13.5ZM9 27C8.70443 26.9999 8.41177 26.9416 8.13873 26.8284C7.8657 26.7152 7.61763 26.5493 7.4087 26.3402C6.98674 25.918 6.7498 25.3454 6.75 24.7485C6.7502 24.1516 6.98752 23.5792 7.40976 23.1572C7.832 22.7352 8.40456 22.4983 9.0015 22.4985C9.59844 22.4987 10.1708 22.736 10.5928 23.1583C11.0148 23.5805 11.2517 24.1531 11.2515 24.75C11.2513 25.3469 11.014 25.9193 10.5917 26.3413C10.1695 26.7633 9.59694 27.0002 9 27ZM28.5 27C27.9031 26.9998 27.3307 26.7625 26.9087 26.3402C26.4867 25.918 26.2498 25.3454 26.25 24.7485C26.2502 24.1516 26.4875 23.5792 26.9098 23.1572C27.332 22.7352 27.9046 22.4983 28.5015 22.4985C29.0984 22.4987 29.6708 22.736 30.0928 23.1583C30.5148 23.5805 30.7517 24.1531 30.7515 24.75C30.7513 25.3469 30.514 25.9193 30.0917 26.3413C29.6695 26.7633 29.0969 27.0002 28.5 27ZM8.6655 7.5C9.186 8.3925 10.143 9 11.25 9C12.357 9 13.314 8.3925 13.8345 7.5H23.667C24.186 8.3925 25.143 9 26.25 9C27.357 9 28.314 8.3925 28.8345 7.5H26.25V4.5H28.8345C28.314 3.6075 27.357 3 26.25 3C25.143 3 24.186 3.6075 23.6655 4.5H13.8345C13.314 3.6075 12.357 3 11.25 3C10.143 3 9.186 3.6075 8.6655 4.5H11.25V7.5H8.6655Z" fill="#1A2E35"/>
</svg>
