<svg width="41" height="40" viewBox="0 0 41 40" fill="none" xmlns="http://www.w3.org/2000/svg">
<path d="M12.7118 30.4889C13.1762 30.3892 13.6034 30.1615 13.945 29.8316C14.2867 29.5017 14.5292 29.0828 14.6452 28.6222C15.2452 28.4667 15.8229 28.2667 16.4118 28.0556V26.7222C16.4164 26.5317 16.4388 26.342 16.4785 26.1556C15.8176 26.4222 15.1425 26.6522 14.4563 26.8444C14.2165 26.3698 13.8334 25.9827 13.3614 25.7379C12.8894 25.4931 12.3523 25.403 11.8262 25.4805C11.3001 25.5579 10.8118 25.7989 10.4303 26.1694C10.0488 26.5398 9.79356 27.0209 9.70071 27.5444H9.20071C7.25683 25.2878 6.12958 22.4423 6.00071 19.4667C7.49389 17.3739 9.38099 15.5925 11.5563 14.2222C11.8799 14.5533 12.2898 14.7871 12.7395 14.897C13.1893 15.007 13.6608 14.9888 14.1007 14.8444C15.4044 16.9831 17.0875 18.8658 19.0674 20.4C19.1399 20.3067 19.2178 20.2176 19.3007 20.1333L20.3563 19.1222C18.4174 17.676 16.7762 15.8688 15.5229 13.8C15.7748 13.4007 15.9095 12.9387 15.9118 12.4667V12.2222C19.9743 10.857 24.3716 10.857 28.434 12.2222C28.1345 13.4992 27.7063 14.7426 27.1563 15.9333H29.1007C29.5134 14.9528 29.8514 13.9426 30.1118 12.9111C30.5896 13.1222 31.0452 13.3667 31.5118 13.6222C32.1485 15.0593 32.5247 16.598 32.6229 18.1667C33.0419 17.9322 33.5099 17.799 33.9896 17.7778C34.2451 17.7828 34.499 17.8202 34.7452 17.8889C34.549 14.8918 33.4894 12.0155 31.6943 9.60745C29.8991 7.1994 27.4452 5.36255 24.6289 4.31871C21.8126 3.27487 18.7543 3.06869 15.8234 3.72507C12.8924 4.38145 10.2142 5.87231 8.11207 8.01762C6.00996 10.1629 4.57387 12.8709 3.97724 15.8146C3.3806 18.7583 3.64894 21.8118 4.74983 24.6063C5.85073 27.4008 7.73711 29.8168 10.1812 31.5626C12.6252 33.3084 15.5224 34.3093 18.5229 34.4444C18.2407 33.7306 18.2407 32.9361 18.5229 32.2222C16.478 32.1012 14.4889 31.5079 12.7118 30.4889ZM19.2785 5.55555C21.0642 5.55825 22.8311 5.9196 24.4745 6.61817C26.1178 7.31674 27.6041 8.3383 28.8452 9.62222C28.8452 9.89999 28.8452 10.1889 28.7563 10.4667C24.2934 8.99582 19.47 9.03879 15.034 10.5889C14.6569 10.2662 14.1932 10.0614 13.7007 9.99999C13.4033 9.08165 13.1767 8.14186 13.0229 7.18888C14.9412 6.13604 17.0904 5.57488 19.2785 5.55555ZM11.3896 8.17777C11.5333 8.898 11.715 9.61011 11.934 10.3111C11.5706 10.5387 11.2708 10.8548 11.0629 11.2299C10.8549 11.605 10.7456 12.0267 10.7452 12.4556V12.6222C9.06631 13.6785 7.54088 14.9609 6.21182 16.4333C6.83428 13.1267 8.68385 10.1777 11.3896 8.17777Z" fill="#1A2E35"/>
<path d="M28.434 23.5444C27.5907 23.5533 26.7689 23.8118 26.0724 24.2874C25.3759 24.763 24.836 25.4344 24.5209 26.2167C24.2058 26.999 24.1296 27.8571 24.3019 28.6827C24.4743 29.5083 24.8874 30.2643 25.4892 30.8552C26.0909 31.4461 26.8543 31.8454 27.6829 32.0027C28.5115 32.16 29.3681 32.0682 30.1445 31.7389C30.921 31.4096 31.5824 30.8575 32.0453 30.1525C32.5081 29.4475 32.7517 28.6211 32.7451 27.7778C32.7276 26.647 32.2653 25.5687 31.4584 24.7763C30.6515 23.984 29.5649 23.5414 28.434 23.5444ZM28.434 30.3C27.9452 30.2912 27.4697 30.1387 27.0671 29.8614C26.6644 29.5841 26.3523 29.1943 26.1698 28.7408C25.9872 28.2872 25.9423 27.7899 26.0406 27.311C26.139 26.8321 26.3762 26.3927 26.7226 26.0477C27.0691 25.7028 27.5095 25.4675 27.9889 25.3713C28.4682 25.2751 28.9653 25.3222 29.4181 25.5067C29.8708 25.6912 30.2592 26.005 30.5347 26.4089C30.8102 26.8128 30.9607 27.2889 30.9673 27.7778C30.9688 28.1104 30.9042 28.4399 30.7773 28.7473C30.6504 29.0547 30.4637 29.3339 30.228 29.5685C29.9923 29.8032 29.7123 29.9887 29.4044 30.1142C29.0964 30.2398 28.7666 30.303 28.434 30.3Z" fill="#1A2E35"/>
<path d="M38.6229 26.8222C38.6338 26.5634 38.5651 26.3075 38.426 26.0889C38.287 25.8704 38.0842 25.6998 37.8452 25.6L36.1118 25.0889C36.0303 24.8519 35.934 24.6185 35.8229 24.3889L36.6229 22.9111C36.7486 22.6707 36.7938 22.3962 36.7518 22.1282C36.7098 21.8602 36.5828 21.6127 36.3896 21.4222L34.9007 19.9556C34.7089 19.7641 34.4608 19.6393 34.1929 19.5993C33.9249 19.5593 33.6511 19.6063 33.4118 19.7333L31.9229 20.5222C31.6801 20.4062 31.4317 20.3024 31.1785 20.2111L30.6563 18.5667C30.5686 18.3188 30.406 18.1043 30.191 17.953C29.976 17.8017 29.7192 17.721 29.4563 17.7222H27.3229C27.0545 17.7241 26.7937 17.8113 26.578 17.971C26.3623 18.1308 26.203 18.3549 26.1229 18.6111L25.634 20.2C25.3771 20.291 25.125 20.3948 24.8785 20.5111L23.4118 19.7333C23.1749 19.6075 22.9041 19.5601 22.6385 19.5981C22.3729 19.636 22.1263 19.7573 21.934 19.9445L20.4118 21.4C20.2161 21.5913 20.0876 21.8408 20.0456 22.1112C20.0035 22.3816 20.0501 22.6583 20.1785 22.9L20.9563 24.3222C20.8377 24.5593 20.734 24.8 20.6452 25.0445L19.0785 25.5556C18.8175 25.6326 18.5886 25.7924 18.4263 26.0108C18.2639 26.2293 18.177 26.4945 18.1785 26.7667V28.8444C18.1911 29.108 18.2857 29.3609 18.449 29.5681C18.6124 29.7753 18.8363 29.9263 19.0896 30L20.7229 30.4889C20.8118 30.7259 20.9155 30.963 21.034 31.2L20.234 32.7C20.1043 32.9405 20.0558 33.2166 20.0959 33.4869C20.1359 33.7573 20.2624 34.0074 20.4563 34.2L21.9452 35.6667C22.1369 35.8581 22.385 35.983 22.653 36.023C22.921 36.063 23.1947 36.016 23.434 35.8889L24.9563 35.0889C25.1859 35.1926 25.4192 35.2889 25.6563 35.3778L26.1452 37.0111C26.2258 37.2691 26.3868 37.4946 26.6047 37.6545C26.8226 37.8144 27.086 37.9005 27.3563 37.9H29.4674C29.7339 37.8958 29.9922 37.8076 30.2057 37.648C30.4191 37.4884 30.5768 37.2655 30.6563 37.0111L31.1452 35.3778C31.3785 35.3 31.6118 35.2 31.834 35.1L33.3674 35.9111C33.6054 36.0356 33.8769 36.0811 34.1425 36.0412C34.4082 36.0012 34.6542 35.8778 34.8452 35.6889L36.334 34.2222C36.5297 34.031 36.6582 33.7815 36.7003 33.5111C36.7424 33.2407 36.6957 32.9639 36.5674 32.7222L35.7563 31.2333C35.86 31.0111 35.9526 30.7889 36.034 30.5667L37.7007 30.0778C37.9622 30.0058 38.1934 29.8511 38.3596 29.6368C38.5259 29.4225 38.6182 29.1601 38.6229 28.8889V26.8222ZM36.8452 28.4889L34.6229 29.1333L34.4896 29.6C34.3664 30.0203 34.1988 30.4263 33.9896 30.8111L33.7563 31.2333L34.8674 33.2222L33.9118 34.1556L31.8896 33.0444L31.4785 33.2667C31.0827 33.4801 30.6656 33.6514 30.234 33.7778L29.7674 33.9111L29.1118 36.1333H27.7452L27.0896 33.9667L26.6229 33.8333C26.1882 33.7107 25.7674 33.5431 25.3674 33.3333L24.9563 33.1111L22.9452 34.2222L21.9896 33.2778L23.1007 31.2556L22.8563 30.8333C22.6292 30.4361 22.4466 30.015 22.3118 29.5778L22.1674 29.1222L20.0007 28.4778V27.1333L22.1563 26.4889L22.2896 26.0333C22.423 25.592 22.6056 25.1671 22.834 24.7667L23.0785 24.3333L21.9674 22.4111L22.934 21.4778L24.9007 22.5222L25.3229 22.2889C25.7351 22.0604 26.171 21.8779 26.6229 21.7444L27.0785 21.6111L27.734 19.4889H29.1007L29.7452 21.6L30.2007 21.7333C30.6484 21.8639 31.0806 22.0427 31.4896 22.2667L31.9118 22.5L33.9118 21.4444L34.8674 22.3889L33.7563 24.3556L33.9896 24.7778C34.2096 25.1757 34.3847 25.5968 34.5118 26.0333L34.6452 26.5L36.7896 27.1333L36.8452 28.4889Z" fill="#D20528"/>
</svg>
