<svg width="70" height="60" viewBox="0 0 70 60" fill="none" xmlns="http://www.w3.org/2000/svg">
<path d="M51.685 23.1002C51.488 23.2902 51.554 23.4802 51.85 23.6002C51.883 23.6702 51.981 23.67 52.047 23.7C53.756 22.32 55.597 20.76 57.997 19.45C58.49 19.2 58.918 18.95 59.378 18.73C60.003 18.45 60.595 18.26 61.318 18.2C61.877 18.17 62.929 18.36 62.929 19.2C62.929 20.17 62.83 21.3901 62.699 22.3201C62.436 24.6301 60.332 22.4801 59.871 22.7901C59.247 23.2001 61.252 23.8802 61.581 24.3502C63.915 24.3502 66.545 24.29 69.405 24.23V51.0001H46.524C46.524 50.9701 46.524 50.97 46.524 50.97C46.787 49.93 46.918 48.8701 46.918 47.7801C46.918 39.8501 40.113 33.38 31.763 33.38C23.412 33.38 16.607 39.8501 16.607 47.7801C16.607 48.8701 16.739 49.93 17.002 50.97C17.002 50.97 17.002 50.9701 17.002 51.0001H9.57201C8.19102 51.0001 7.79599 51 6.90899 50.93C6.51399 50.93 6.05401 50.9002 5.36401 50.8402C5.00201 50.8402 4.60801 50.8101 4.11401 50.8101C3.91701 50.7801 3.65396 50.7801 3.35796 50.7501C2.76596 50.7201 2.23998 50.6501 1.81298 50.5001C1.74698 50.4701 1.68202 50.47 1.61602 50.43C1.51702 50.4 1.45102 50.3701 1.35302 50.3101C1.18802 50.2801 1.05698 50.1802 0.924981 50.0902C0.694981 49.9302 0.564 49.7801 0.432 49.5601C0.367 49.4301 0.300978 49.28 0.234978 49.15C0.135978 48.68 0.169018 48.2202 0.301018 47.8402C0.301018 47.7802 0.333977 47.75 0.333977 47.69C0.333977 47.62 0.366997 47.5901 0.366997 47.5601C0.398997 47.4701 0.431979 47.3701 0.497979 47.2801C0.530979 47.1501 0.563998 47.0601 0.629998 47.0001C0.661998 46.9401 0.695 46.9 0.695 46.9C0.695 46.9 0.694979 46.8701 0.760979 46.8101C0.760979 46.8101 0.760979 46.8101 0.760979 46.7801C0.760979 46.7501 0.826998 46.6201 0.892998 46.5301C0.924998 46.4001 1.02402 46.28 1.09002 46.15C1.12302 46 1.18802 45.84 1.25402 45.72C1.32002 45.5 1.35302 45.3102 1.35302 45.1202C1.35302 44.0002 1.35302 43.0002 1.35302 42.0902C1.35302 41.7802 1.38598 41.47 1.38598 41.19V40.91C1.38598 40.69 1.386 40.5302 1.419 40.3502V40.2801C1.419 40.0301 1.419 39.8102 1.419 39.6002C1.451 39.3502 1.451 39.1 1.484 38.88C1.484 38.66 1.48402 38.41 1.51702 38.22C1.51702 38 1.51698 37.7802 1.54998 37.6002C1.58298 37.4102 1.583 37.2201 1.583 37.0301C1.649 36.7201 1.649 36.47 1.682 36.19C3.95 36.25 6.25099 36.38 8.38799 35.97C11.248 35.32 12.07 33.13 12.728 30.66C9.99902 30.48 7.17201 30.5101 4.37701 30.5101C4.64001 30.2301 4.87101 29.88 5.16601 29.48C5.36401 29.23 5.10097 29.38 5.39697 29.23L5.52801 29.16L12.498 28.7901H12.794L13.221 28.7601H13.254L43.894 27.1002L45.866 26.98L43.894 27.1002L20.322 6.61018L19.665 6.02009L12.794 0.0801474C18.251 -0.0998526 38.93 18.6102 45.899 22.8502C45.866 22.8502 45.866 22.8502 45.866 22.8502V22.95L45.899 22.8502C46.392 22.7302 46.82 22.6 47.116 22.48C49.088 21.73 61.022 15.7301 69.405 12.0801V13.89C62.37 16.79 53.658 20.8602 51.685 23.1002Z" fill="#EC1F36"/>
<path d="M3.52197 35.1599C2.99597 35.1599 2.46997 35.1599 1.94397 35.1299C2.33897 33.7499 2.93099 32.9099 3.91699 31.6299C4.73899 31.6299 5.561 31.6001 6.383 31.6001C7.961 31.6001 9.308 31.6299 10.492 31.6899C9.834 33.4999 8.98002 34.4699 7.27002 34.8799C6.28402 35.0699 5.06797 35.1599 3.52197 35.1599Z" fill="#EC1F36"/>
<path d="M39.193 54.8701L38.338 55.5901L38.272 55.6201C38.108 55.7401 37.878 55.9001 37.648 56.0601L36.694 56.5901C35.149 57.3701 33.538 57.74 31.796 57.74C30.086 57.74 28.442 57.3701 26.963 56.6201C26.634 56.4601 26.306 56.2701 25.977 56.0901C25.747 55.9301 25.517 55.7801 25.254 55.5901L24.465 54.8999C23.314 53.8399 22.459 52.5899 21.933 51.1799C21.506 50.0599 21.308 48.93 21.308 47.78C21.308 47.22 21.341 46.6501 21.473 46.0901C21.506 45.7501 21.571 45.41 21.703 45.03C21.769 44.78 21.867 44.5 21.966 44.25C22.097 43.91 22.262 43.56 22.426 43.25C23.971 40.38 26.897 38.3799 30.251 37.9099C30.612 37.8499 31.007 37.82 31.368 37.78C31.5 37.78 31.631 37.78 31.796 37.78C31.993 37.78 32.125 37.78 32.322 37.78C32.651 37.82 33.012 37.8499 33.374 37.9099C36.76 38.3799 39.653 40.41 41.198 43.28C41.33 43.53 41.494 43.84 41.658 44.25C41.757 44.53 41.856 44.8101 41.921 45.0901C42.02 45.4101 42.119 45.7501 42.152 46.0901C42.25 46.6201 42.316 47.19 42.316 47.78C42.316 48.97 42.119 50.0899 41.691 51.1799C41.132 52.5599 40.278 53.8401 39.193 54.8701ZM31.796 36.1001C25.023 36.1001 19.533 41.34 19.533 47.78C19.533 54.21 25.023 59.46 31.796 59.46C38.568 59.46 44.091 54.21 44.091 47.78C44.091 41.34 38.568 36.1001 31.796 36.1001Z" fill="#EC1F36"/>
<path d="M40.179 50.96C39.751 52 39.094 52.93 38.206 53.78L36.069 50.96L35.642 50.3701L34.59 49.03L34.196 48.47L34.853 48.25L36.53 47.75L40.705 46.4399C40.771 46.8999 40.836 47.31 40.836 47.78C40.836 48.87 40.606 49.93 40.179 50.96ZM37.417 54.46C37.253 54.59 37.023 54.7401 36.793 54.8701V54.8999L33.768 50.96L33.275 50.3101L32.65 49.5C32.683 49.47 32.683 49.47 32.716 49.47C32.913 49.37 33.111 49.2501 33.275 49.0601L33.308 49.03L33.932 49.8401L34.787 50.96L37.45 54.4299L37.417 54.46ZM31.796 56.3401C30.382 56.3401 29.001 56.0199 27.752 55.3999L30.349 52L31.138 50.96L31.401 50.6201L31.828 50.0901L32.256 50.6499L32.486 50.96L33.275 52L35.872 55.3999C34.623 56.0199 33.242 56.3401 31.796 56.3401ZM26.831 54.9299C26.831 54.8999 26.831 54.8999 26.831 54.8999C26.601 54.7399 26.404 54.62 26.174 54.46C26.174 54.46 26.174 54.4599 26.174 54.4299L28.837 50.96L29.692 49.8401L30.316 49C30.349 49.03 30.349 49.03 30.349 49.03C30.513 49.22 30.711 49.37 30.941 49.47C30.941 49.47 30.974 49.47 31.007 49.47L30.349 50.3101L29.856 50.96L26.831 54.9299ZM25.418 53.78C24.563 52.96 23.873 52 23.445 50.96C23.018 49.97 22.788 48.87 22.788 47.78C22.788 47.31 22.821 46.8699 22.919 46.4399L27.127 47.75L28.804 48.25L29.461 48.47L29.034 49.03L28.015 50.3701L27.555 50.96L25.418 53.78ZM23.116 45.47C23.215 45.25 23.281 45 23.379 44.78C23.379 44.75 23.379 44.75 23.379 44.72L29.034 46.47L30.119 46.78C30.119 46.81 30.119 46.8101 30.119 46.8101C29.987 47.0301 29.889 47.28 29.856 47.53C29.856 47.53 29.856 47.5301 29.856 47.5601L28.804 47.22L23.116 45.47ZM30.349 39.3101V45.8401L29.692 45.6201L28.015 45.1201L23.807 43.8101C25.155 41.4101 27.555 39.7201 30.349 39.3101ZM31.796 46.9399C32.289 46.9399 32.683 47.31 32.683 47.75C32.683 48.22 32.289 48.6201 31.796 48.6201C31.302 48.6201 30.908 48.22 30.908 47.75C30.908 47.31 31.302 46.9399 31.796 46.9399ZM31.401 39.22C31.565 39.22 31.664 39.22 31.763 39.22H32.157C32.19 39.22 32.223 39.22 32.256 39.22V45.8999H32.223C32.091 45.8699 31.96 45.8701 31.828 45.8701C31.697 45.8701 31.565 45.8699 31.401 45.8999V39.22ZM33.275 39.3101C36.069 39.7501 38.469 41.4401 39.784 43.8101L35.642 45.1201L33.932 45.6201L33.275 45.8401V39.3101ZM40.245 44.75C40.343 44.97 40.409 45.2199 40.475 45.4399C40.475 45.4699 40.475 45.47 40.475 45.47L34.853 47.22L33.801 47.53V47.5C33.768 47.25 33.669 47.0001 33.571 46.8101C33.538 46.8101 33.538 46.78 33.538 46.78L34.59 46.47L40.245 44.72C40.245 44.75 40.245 44.75 40.245 44.75ZM41.494 46.1899C41.428 45.8699 41.362 45.56 41.264 45.25C41.198 44.97 41.099 44.72 41.001 44.47C40.869 44.16 40.738 43.8701 40.573 43.5601C39.193 40.9401 36.464 38.97 33.275 38.53C32.913 38.47 32.585 38.4699 32.256 38.4399C32.091 38.4399 31.96 38.4399 31.796 38.4399C31.664 38.4399 31.533 38.4399 31.401 38.4399C31.039 38.4699 30.711 38.47 30.349 38.53C27.16 38.97 24.464 40.9101 23.051 43.5601C22.886 43.8401 22.722 44.16 22.59 44.47C22.492 44.72 22.426 44.97 22.36 45.22C22.262 45.53 22.163 45.8699 22.13 46.1899C22.032 46.7199 21.966 47.22 21.966 47.78C21.966 48.87 22.196 49.97 22.59 50.96C23.084 52.28 23.873 53.4599 24.925 54.4299L25.681 55.0901C25.911 55.2401 26.141 55.4 26.371 55.53C26.667 55.71 26.963 55.9001 27.259 56.0601C28.64 56.7401 30.152 57.1201 31.796 57.1201C33.472 57.1201 34.985 56.71 36.365 56.02L37.253 55.53C37.483 55.4 37.713 55.2401 37.943 55.0601H37.976L38.667 54.4299L38.699 54.3999C39.751 53.4599 40.54 52.25 41.034 50.96C41.428 49.97 41.625 48.87 41.625 47.78C41.625 47.22 41.592 46.7199 41.494 46.1899Z" fill="#EC1F36"/>
<path d="M19.895 7.98999L13.681 27.45L12.827 27.48L19.237 7.41992L19.402 7.58008L19.895 7.98999Z" fill="#EC1F36"/>
</svg>
