<svg width="41" height="40" viewBox="0 0 41 40" fill="none" xmlns="http://www.w3.org/2000/svg">
<path d="M28.8729 9.82224C28.8838 9.56343 28.8151 9.3075 28.676 9.08896C28.537 8.87042 28.3342 8.69977 28.0952 8.60002L26.3618 8.08891C26.2803 7.85187 26.184 7.61854 26.0729 7.38891L26.8729 5.91113C26.9986 5.67069 27.0438 5.39625 27.0018 5.12821C26.9598 4.86017 26.8328 4.6127 26.6396 4.42224L25.1507 2.95557C24.9589 2.76416 24.7108 2.63929 24.4429 2.59929C24.1749 2.55929 23.9011 2.60628 23.6618 2.73335L22.1729 3.52224C21.9301 3.40622 21.6817 3.30239 21.4285 3.21113L20.9063 1.56669C20.8186 1.31879 20.656 1.10432 20.441 0.953007C20.226 0.801694 19.9692 0.721044 19.7063 0.722242H17.5729C17.3045 0.724156 17.0437 0.811277 16.828 0.971038C16.6123 1.1308 16.453 1.35494 16.3729 1.61113L15.884 3.20002C15.6271 3.291 15.375 3.39483 15.1285 3.51113L13.6618 2.73335C13.4249 2.60751 13.1541 2.56015 12.8885 2.59809C12.6229 2.63603 12.3763 2.75731 12.184 2.94447L10.6618 4.40002C10.4661 4.59129 10.3376 4.8408 10.2956 5.11119C10.2535 5.38159 10.3001 5.65834 10.4285 5.90002L11.2063 7.32224C11.0877 7.55928 10.984 7.80002 10.8952 8.04447L9.32849 8.55558C9.06748 8.63264 8.83858 8.79242 8.67626 9.01085C8.51394 9.22929 8.42698 9.49455 8.42849 9.76669V11.8445C8.44111 12.108 8.53569 12.361 8.69903 12.5681C8.86236 12.7753 9.08631 12.9263 9.3396 13L10.9729 13.4889C11.0618 13.7259 11.1655 13.963 11.284 14.2L10.484 15.7C10.3543 15.9406 10.3058 16.2166 10.3459 16.4869C10.3859 16.7573 10.5124 17.0074 10.7063 17.2L12.1952 18.6667C12.3869 18.8581 12.635 18.983 12.903 19.023C13.171 19.063 13.4447 19.016 13.684 18.8889L15.2063 18.0889C15.4359 18.1926 15.6692 18.2889 15.9063 18.3778L16.3952 20.0111C16.4758 20.2691 16.6368 20.4946 16.8547 20.6545C17.0726 20.8144 17.336 20.9005 17.6063 20.9H19.7174C19.9839 20.8958 20.2422 20.8076 20.4557 20.648C20.6691 20.4884 20.8268 20.2655 20.9063 20.0111L21.3952 18.3778C21.6285 18.3 21.8618 18.2 22.084 18.1L23.6174 18.9111C23.8554 19.0356 24.1269 19.0811 24.3925 19.0412C24.6582 19.0012 24.9042 18.8779 25.0952 18.6889L26.584 17.2222C26.7797 17.031 26.9082 16.7815 26.9503 16.5111C26.9924 16.2407 26.9457 15.9639 26.8174 15.7222L26.0063 14.2334C26.11 14.0111 26.2026 13.7889 26.284 13.5667L27.9507 13.0778C28.2122 13.0058 28.4434 12.8511 28.6096 12.6368C28.7759 12.4225 28.8682 12.1601 28.8729 11.8889V9.82224ZM27.0952 11.4889L24.8729 12.1334L24.7396 12.6C24.6164 13.0203 24.4488 13.4263 24.2396 13.8111L24.0063 14.2334L25.1174 16.2222L24.1618 17.1556L22.1396 16.0445L21.7285 16.2667C21.3327 16.4802 20.9156 16.6515 20.484 16.7778L20.0174 16.9111L19.3618 19.1334H17.9952L17.3396 16.9667L16.8729 16.8334C16.4382 16.7107 16.0174 16.5431 15.6174 16.3334L15.2063 16.1111L13.1952 17.2222L12.2396 16.2778L13.3507 14.2556L13.1063 13.8334C12.8792 13.4361 12.6966 13.0151 12.5618 12.5778L12.4174 12.1222L10.2507 11.4778V10.1334L12.4063 9.48891L12.5396 9.03335C12.673 8.59204 12.8556 8.16715 13.084 7.76669L13.3285 7.33335L12.2174 5.41113L13.184 4.4778L15.1507 5.52224L15.5729 5.28891C15.9851 5.06045 16.421 4.87787 16.8729 4.74446L17.3285 4.61113L17.984 2.48891H19.3507L19.9952 4.60002L20.4507 4.73335C20.8984 4.86389 21.3306 5.04272 21.7396 5.26669L22.1618 5.50002L24.1618 4.44446L25.1174 5.38891L24.0063 7.35558L24.2396 7.7778C24.4596 8.17571 24.6347 8.5968 24.7618 9.03335L24.8952 9.50002L27.0396 10.1334L27.0952 11.4889Z" fill="#D20528"/>
<path d="M28.684 23.5444C27.8407 23.5533 27.0189 23.8118 26.3224 24.2874C25.6259 24.763 25.086 25.4344 24.7709 26.2167C24.4558 26.999 24.3796 27.8571 24.5519 28.6827C24.7243 29.5083 25.1374 30.2643 25.7392 30.8552C26.3409 31.4461 27.1043 31.8454 27.9329 32.0027C28.7615 32.16 29.6181 32.0682 30.3945 31.7389C31.171 31.4096 31.8324 30.8575 32.2953 30.1525C32.7581 29.4475 33.0017 28.6211 32.9951 27.7778C32.9776 26.647 32.5153 25.5687 31.7084 24.7763C30.9015 23.984 29.8149 23.5414 28.684 23.5444ZM28.684 30.3C28.1952 30.2912 27.7197 30.1387 27.3171 29.8614C26.9144 29.5841 26.6023 29.1943 26.4198 28.7408C26.2372 28.2872 26.1923 27.7899 26.2906 27.311C26.389 26.8321 26.6262 26.3927 26.9726 26.0477C27.3191 25.7028 27.7595 25.4675 28.2389 25.3713C28.7182 25.2751 29.2153 25.3222 29.6681 25.5067C30.1208 25.6912 30.5092 26.005 30.7847 26.4089C31.0602 26.8128 31.2107 27.2889 31.2173 27.7778C31.2188 28.1104 31.1542 28.4399 31.0273 28.7473C30.9004 29.0547 30.7137 29.3339 30.478 29.5685C30.2423 29.8032 29.9623 29.9887 29.6544 30.1142C29.3464 30.2398 29.0166 30.303 28.684 30.3Z" fill="#1A2E35"/>
<path d="M38.8729 26.8222C38.8838 26.5634 38.8151 26.3075 38.676 26.0889C38.537 25.8704 38.3342 25.6998 38.0952 25.6L36.3618 25.0889C36.2803 24.8519 36.184 24.6185 36.0729 24.3889L36.8729 22.9111C36.9986 22.6707 37.0438 22.3962 37.0018 22.1282C36.9598 21.8602 36.8328 21.6127 36.6396 21.4222L35.1507 19.9556C34.9589 19.7641 34.7108 19.6393 34.4429 19.5993C34.1749 19.5593 33.9011 19.6063 33.6618 19.7333L32.1729 20.5222C31.9301 20.4062 31.6817 20.3024 31.4285 20.2111L30.9063 18.5667C30.8186 18.3188 30.656 18.1043 30.441 17.953C30.226 17.8017 29.9692 17.721 29.7063 17.7222H27.5729C27.3045 17.7241 27.0437 17.8113 26.828 17.971C26.6123 18.1308 26.453 18.3549 26.3729 18.6111L25.884 20.2C25.6271 20.291 25.375 20.3948 25.1285 20.5111L23.6618 19.7333C23.4249 19.6075 23.1541 19.5601 22.8885 19.5981C22.6229 19.636 22.3763 19.7573 22.184 19.9445L20.6618 21.4C20.4661 21.5913 20.3376 21.8408 20.2956 22.1112C20.2535 22.3816 20.3001 22.6583 20.4285 22.9L21.2063 24.3222C21.0877 24.5593 20.984 24.8 20.8952 25.0445L19.3285 25.5556C19.0675 25.6326 18.8386 25.7924 18.6763 26.0108C18.5139 26.2293 18.427 26.4945 18.4285 26.7667V28.8444C18.4411 29.108 18.5357 29.3609 18.699 29.5681C18.8624 29.7753 19.0863 29.9263 19.3396 30L20.9729 30.4889C21.0618 30.7259 21.1655 30.963 21.284 31.2L20.484 32.7C20.3543 32.9405 20.3058 33.2166 20.3459 33.4869C20.3859 33.7573 20.5124 34.0074 20.7063 34.2L22.1952 35.6667C22.3869 35.8581 22.635 35.983 22.903 36.023C23.171 36.063 23.4447 36.016 23.684 35.8889L25.2063 35.0889C25.4359 35.1926 25.6692 35.2889 25.9063 35.3778L26.3952 37.0111C26.4758 37.2691 26.6368 37.4946 26.8547 37.6545C27.0726 37.8144 27.336 37.9005 27.6063 37.9H29.7174C29.9839 37.8958 30.2422 37.8076 30.4557 37.648C30.6691 37.4884 30.8268 37.2655 30.9063 37.0111L31.3952 35.3778C31.6285 35.3 31.8618 35.2 32.084 35.1L33.6174 35.9111C33.8554 36.0356 34.1269 36.0811 34.3925 36.0412C34.6582 36.0012 34.9042 35.8778 35.0952 35.6889L36.584 34.2222C36.7797 34.031 36.9082 33.7815 36.9503 33.5111C36.9924 33.2407 36.9457 32.9639 36.8174 32.7222L36.0063 31.2333C36.11 31.0111 36.2026 30.7889 36.284 30.5667L37.9507 30.0778C38.2122 30.0058 38.4434 29.8511 38.6096 29.6368C38.7759 29.4225 38.8682 29.1601 38.8729 28.8889V26.8222ZM37.0952 28.4889L34.8729 29.1333L34.7396 29.6C34.6164 30.0203 34.4488 30.4263 34.2396 30.8111L34.0063 31.2333L35.1174 33.2222L34.1618 34.1556L32.1396 33.0444L31.7285 33.2667C31.3327 33.4801 30.9156 33.6514 30.484 33.7778L30.0174 33.9111L29.3618 36.1333H27.9952L27.3396 33.9667L26.8729 33.8333C26.4382 33.7107 26.0174 33.5431 25.6174 33.3333L25.2063 33.1111L23.1952 34.2222L22.2396 33.2778L23.3507 31.2556L23.1063 30.8333C22.8792 30.4361 22.6966 30.015 22.5618 29.5778L22.4174 29.1222L20.2507 28.4778V27.1333L22.4063 26.4889L22.5396 26.0333C22.673 25.592 22.8556 25.1671 23.084 24.7667L23.3285 24.3333L22.2174 22.4111L23.184 21.4778L25.1507 22.5222L25.5729 22.2889C25.9851 22.0604 26.421 21.8779 26.8729 21.7444L27.3285 21.6111L27.984 19.4889H29.3507L29.9952 21.6L30.4507 21.7333C30.8984 21.8639 31.3306 22.0427 31.7396 22.2667L32.1618 22.5L34.1618 21.4444L35.1174 22.3889L34.0063 24.3556L34.2396 24.7778C34.4596 25.1757 34.6347 25.5968 34.7618 26.0333L34.8952 26.5L37.0396 27.1333L37.0952 28.4889Z" fill="#1A2E35"/>
</svg>
