<svg width="59" height="58" viewBox="0 0 59 58" fill="none" xmlns="http://www.w3.org/2000/svg">
<path d="M29.685 52.86C16.293 52.86 5.39001 42.06 5.39001 28.76C5.39001 15.47 16.293 4.67004 29.685 4.67004C43.078 4.67004 53.981 15.47 53.981 28.76C53.981 42.06 43.078 52.86 29.685 52.86ZM29.685 0.0500488C13.718 0.0500488 0.754028 12.95 0.754028 28.76C0.754028 44.58 13.718 57.48 29.685 57.48C45.653 57.48 58.617 44.58 58.617 28.76C58.617 12.95 45.653 0.0500488 29.685 0.0500488Z" fill="#EC1F36"/>
<path d="M29.685 7.83984C18.067 7.83984 8.59497 17.2299 8.59497 28.7599C8.59497 33.6699 10.341 38.4298 13.517 42.1998L14.69 41.2098C14.118 40.5298 13.603 39.7899 13.145 39.0299L14.49 38.2599C14.261 37.8599 14.032 37.4698 13.803 37.0698L12.43 37.8398C11.857 36.7598 11.371 35.6199 11.028 34.4299L12.544 34.0399C12.401 33.6099 12.287 33.1598 12.172 32.6998L10.656 33.0999C10.369 31.9099 10.226 30.6898 10.169 29.4398H11.772C11.743 29.2198 11.743 28.9899 11.743 28.7599C11.743 28.5399 11.743 28.3098 11.772 28.0798H10.169C10.198 26.8098 10.369 25.5899 10.627 24.4299L12.172 24.8198C12.287 24.3698 12.401 23.9499 12.544 23.4899L10.999 23.0999C11.371 21.8999 11.857 20.7698 12.43 19.6898L13.803 20.4899C14.032 20.0599 14.261 19.6699 14.49 19.2699L13.117 18.4698C13.803 17.4498 14.547 16.4599 15.377 15.5499L16.522 16.6898C16.837 16.3498 17.151 16.0098 17.495 15.6998L16.379 14.5898C17.295 13.7398 18.268 12.9999 19.326 12.3499L20.128 13.7098C20.5 13.4598 20.9 13.2299 21.329 13.0299L20.528 11.6399C21.616 11.0799 22.76 10.5899 23.962 10.2299L24.363 11.7599C24.821 11.6399 25.25 11.4999 25.708 11.4199L25.307 9.88989C26.48 9.59989 27.74 9.4299 28.999 9.3999V10.9899C29.228 10.9899 29.457 10.9598 29.685 10.9598C29.914 10.9598 30.143 10.9899 30.372 10.9899V9.3999C31.66 9.4299 32.862 9.59989 34.064 9.88989L33.663 11.4199C34.121 11.4999 34.55 11.6399 35.008 11.7599L35.409 10.2299C36.611 10.5899 37.755 11.0799 38.843 11.6399L38.041 13.0299C38.471 13.2299 38.871 13.4598 39.243 13.7098L40.045 12.3499C41.103 12.9999 42.076 13.7398 42.992 14.5898L41.876 15.6998C42.219 16.0098 42.534 16.3498 42.849 16.6898L43.965 15.5499C44.823 16.4599 45.596 17.4498 46.254 18.4698L44.852 19.2699C45.11 19.6699 45.339 20.0599 45.567 20.4899L46.941 19.6898C47.513 20.7698 48 21.8999 48.372 23.0999L46.827 23.4899C46.97 23.9499 47.084 24.3698 47.199 24.8198L48.715 24.4299C49.001 25.5899 49.173 26.8098 49.202 28.0798H47.599C47.628 28.3098 47.628 28.5399 47.628 28.7599C47.628 28.9899 47.628 29.2198 47.599 29.4398H49.202C49.145 30.6898 49.001 31.9099 48.715 33.0999L47.199 32.6998C47.084 33.1598 46.97 33.6099 46.827 34.0399L48.343 34.4299C48 35.6199 47.513 36.7598 46.941 37.8398L45.567 37.0698C45.339 37.4698 45.11 37.8599 44.852 38.2599L46.226 39.0299C45.768 39.7899 45.253 40.5298 44.68 41.2098L45.854 42.1998C49.03 38.4298 50.776 33.6699 50.776 28.7599C50.776 17.2299 41.304 7.83984 29.685 7.83984Z" fill="#EC1F36"/>
<path d="M39.902 17.5401L31.117 26.24C30.687 26.01 30.201 25.87 29.686 25.87C28.055 25.87 26.7671 27.18 26.7671 28.76C26.7671 29.27 26.91 29.7801 27.167 30.1801L25.164 32.1701C24.878 32.4501 24.878 32.93 25.164 33.24C25.307 33.38 25.508 33.47 25.708 33.47C25.908 33.47 26.109 33.38 26.252 33.24L28.255 31.2901C28.684 31.5101 29.171 31.6601 29.686 31.6601C31.288 31.6601 32.605 30.35 32.605 28.76C32.605 28.25 32.461 27.77 32.233 27.35L40.989 18.6401C41.304 18.3301 41.304 17.8501 40.989 17.5401C40.703 17.2601 40.188 17.2601 39.902 17.5401Z" fill="#EC1F36"/>
<path d="M20.958 42.29V46.03C20.958 46.34 21.215 46.59 21.53 46.59H26.194V41.75H21.53C21.215 41.75 20.958 41.97 20.958 42.29Z" fill="#EC1F36"/>
<path d="M27.368 46.59H32.004V41.75H27.368V46.59Z" fill="#EC1F36"/>
<path d="M37.841 41.75H33.177V46.59H37.841C38.156 46.59 38.414 46.34 38.414 46.03V42.29C38.414 41.97 38.156 41.75 37.841 41.75Z" fill="#EC1F36"/>
</svg>
