<svg width="67" height="52" viewBox="0 0 67 52" fill="none" xmlns="http://www.w3.org/2000/svg">
<path d="M23.043 22C23.043 22.31 22.82 22.52 22.502 22.52C22.215 22.52 21.961 22.31 21.961 22C21.961 21.73 22.215 21.49 22.502 21.49C22.82 21.49 23.043 21.73 23.043 22Z" fill="#EC1F36"/>
<path d="M41.176 27.1702C40.317 27.1702 39.617 27.8402 39.617 28.6802C39.617 29.5002 40.317 30.1602 41.176 30.1602C42.067 30.1602 42.766 29.5002 42.766 28.6802C42.766 27.8402 42.067 27.1702 41.176 27.1702ZM36.945 36.3002C34.05 34.8502 32.11 31.9802 32.11 28.6802C32.11 25.9002 33.477 23.4501 35.609 21.8501L28.483 20.3701C28.642 20.8801 28.706 21.4301 28.706 22.0001C28.706 25.2701 25.938 27.9302 22.503 27.9302C22.153 27.9302 21.834 27.9001 21.485 27.8401L23.52 34.2401C24.411 33.6101 25.525 33.2201 26.733 33.2201C29.628 33.2201 31.982 35.4501 31.982 38.2001V38.2301L36.945 36.3002ZM26.733 37.9601C26.574 37.9601 26.479 38.0801 26.479 38.2001C26.479 38.3501 26.606 38.4701 26.733 38.4701C26.892 38.4701 26.988 38.3501 26.988 38.2001C26.988 38.0801 26.892 37.9601 26.733 37.9601ZM41.176 27.1702C40.317 27.1702 39.617 27.8402 39.617 28.6802C39.617 29.5002 40.317 30.1602 41.176 30.1602C42.067 30.1602 42.766 29.5002 42.766 28.6802C42.766 27.8402 42.067 27.1702 41.176 27.1702ZM41.176 27.1702C40.317 27.1702 39.617 27.8402 39.617 28.6802C39.617 29.5002 40.317 30.1602 41.176 30.1602C42.067 30.1602 42.766 29.5002 42.766 28.6802C42.766 27.8402 42.067 27.1702 41.176 27.1702ZM36.945 36.3002C34.05 34.8502 32.11 31.9802 32.11 28.6802C32.11 25.9002 33.477 23.4501 35.609 21.8501L28.483 20.3701C28.642 20.8801 28.706 21.4301 28.706 22.0001C28.706 25.2701 25.938 27.9302 22.503 27.9302C22.153 27.9302 21.834 27.9001 21.485 27.8401L23.52 34.2401C24.411 33.6101 25.525 33.2201 26.733 33.2201C29.628 33.2201 31.982 35.4501 31.982 38.2001V38.2301L36.945 36.3002ZM41.176 27.1702C40.317 27.1702 39.617 27.8402 39.617 28.6802C39.617 29.5002 40.317 30.1602 41.176 30.1602C42.067 30.1602 42.766 29.5002 42.766 28.6802C42.766 27.8402 42.067 27.1702 41.176 27.1702ZM41.176 27.1702C40.317 27.1702 39.617 27.8402 39.617 28.6802C39.617 29.5002 40.317 30.1602 41.176 30.1602C42.067 30.1602 42.766 29.5002 42.766 28.6802C42.766 27.8402 42.067 27.1702 41.176 27.1702ZM36.945 36.3002C34.05 34.8502 32.11 31.9802 32.11 28.6802C32.11 25.9002 33.477 23.4501 35.609 21.8501L28.483 20.3701C28.642 20.8801 28.706 21.4301 28.706 22.0001C28.706 25.2701 25.938 27.9302 22.503 27.9302C22.153 27.9302 21.834 27.9001 21.485 27.8401L23.52 34.2401C24.411 33.6101 25.525 33.2201 26.733 33.2201C29.628 33.2201 31.982 35.4501 31.982 38.2001V38.2301L36.945 36.3002ZM26.733 37.9601C26.574 37.9601 26.479 38.0801 26.479 38.2001C26.479 38.3501 26.606 38.4701 26.733 38.4701C26.892 38.4701 26.988 38.3501 26.988 38.2001C26.988 38.0801 26.892 37.9601 26.733 37.9601ZM36.945 36.3002C34.05 34.8502 32.11 31.9802 32.11 28.6802C32.11 25.9002 33.477 23.4501 35.609 21.8501L28.483 20.3701C28.642 20.8801 28.706 21.4301 28.706 22.0001C28.706 25.2701 25.938 27.9302 22.503 27.9302C22.153 27.9302 21.834 27.9001 21.485 27.8401L23.52 34.2401C24.411 33.6101 25.525 33.2201 26.733 33.2201C29.628 33.2201 31.982 35.4501 31.982 38.2001V38.2301L36.945 36.3002ZM41.176 27.1702C40.317 27.1702 39.617 27.8402 39.617 28.6802C39.617 29.5002 40.317 30.1602 41.176 30.1602C42.067 30.1602 42.766 29.5002 42.766 28.6802C42.766 27.8402 42.067 27.1702 41.176 27.1702ZM41.176 27.1702C40.317 27.1702 39.617 27.8402 39.617 28.6802C39.617 29.5002 40.317 30.1602 41.176 30.1602C42.067 30.1602 42.766 29.5002 42.766 28.6802C42.766 27.8402 42.067 27.1702 41.176 27.1702ZM36.945 36.3002C34.05 34.8502 32.11 31.9802 32.11 28.6802C32.11 25.9002 33.477 23.4501 35.609 21.8501L28.483 20.3701C28.642 20.8801 28.706 21.4301 28.706 22.0001C28.706 25.2701 25.938 27.9302 22.503 27.9302C22.153 27.9302 21.834 27.9001 21.485 27.8401L23.52 34.2401C24.411 33.6101 25.525 33.2201 26.733 33.2201C29.628 33.2201 31.982 35.4501 31.982 38.2001V38.2301L36.945 36.3002ZM26.733 37.9601C26.574 37.9601 26.479 38.0801 26.479 38.2001C26.479 38.3501 26.606 38.4701 26.733 38.4701C26.892 38.4701 26.988 38.3501 26.988 38.2001C26.988 38.0801 26.892 37.9601 26.733 37.9601ZM26.733 37.9601C26.574 37.9601 26.479 38.0801 26.479 38.2001C26.479 38.3501 26.606 38.4701 26.733 38.4701C26.892 38.4701 26.988 38.3501 26.988 38.2001C26.988 38.0801 26.892 37.9601 26.733 37.9601ZM36.945 36.3002C34.05 34.8502 32.11 31.9802 32.11 28.6802C32.11 25.9002 33.477 23.4501 35.609 21.8501L28.483 20.3701C28.642 20.8801 28.706 21.4301 28.706 22.0001C28.706 25.2701 25.938 27.9302 22.503 27.9302C22.153 27.9302 21.834 27.9001 21.485 27.8401L23.52 34.2401C24.411 33.6101 25.525 33.2201 26.733 33.2201C29.628 33.2201 31.982 35.4501 31.982 38.2001V38.2301L36.945 36.3002ZM41.176 27.1702C40.317 27.1702 39.617 27.8402 39.617 28.6802C39.617 29.5002 40.317 30.1602 41.176 30.1602C42.067 30.1602 42.766 29.5002 42.766 28.6802C42.766 27.8402 42.067 27.1702 41.176 27.1702ZM26.479 38.2001C26.479 38.3501 26.606 38.4701 26.733 38.4701C26.892 38.4701 26.988 38.3501 26.988 38.2001C26.988 38.0801 26.892 37.9601 26.733 37.9601C26.574 37.9601 26.479 38.0801 26.479 38.2001ZM22.503 27.9302C22.153 27.9302 21.834 27.9001 21.485 27.8401L23.52 34.2401C24.411 33.6101 25.525 33.2201 26.733 33.2201C29.628 33.2201 31.982 35.4501 31.982 38.2001V38.2301L36.945 36.3002C34.05 34.8502 32.11 31.9802 32.11 28.6802C32.11 25.9002 33.477 23.4501 35.609 21.8501L28.483 20.3701C28.642 20.8801 28.706 21.4301 28.706 22.0001C28.706 25.2701 25.938 27.9302 22.503 27.9302ZM42.766 28.6802C42.766 27.8402 42.067 27.1702 41.176 27.1702C40.317 27.1702 39.617 27.8402 39.617 28.6802C39.617 29.5002 40.317 30.1602 41.176 30.1602C42.067 30.1602 42.766 29.5002 42.766 28.6802ZM40.253 12.0001L39.394 11.4601L39.49 11.3301H27.401L27.497 11.4601L26.415 12.1802L19.608 16.6501L19.671 16.7401C20.53 16.3201 21.485 16.1101 22.503 16.1101C23.457 16.1101 24.379 16.2901 25.175 16.6501L41.462 20.0402C46.361 20.1902 50.242 24.0002 50.242 28.6802C50.242 32.3402 47.888 35.4501 44.516 36.7201L44.293 36.7802L40.444 38.1702L29.819 42.2501C28.96 42.8901 27.879 43.2201 26.733 43.2201C23.839 43.2201 21.453 40.9801 21.453 38.2001C21.453 38.1401 21.453 38.1102 21.485 38.0502L17.54 25.5402C16.745 24.5702 16.268 23.3301 16.268 22.0001C16.268 20.3701 16.999 18.8902 18.144 17.8002L18.049 17.6802L10.987 22.3401L15.631 33.6101L23.107 51.8002H43.784L51.26 33.6101L55.904 22.3401L40.253 12.0001ZM41.176 27.1702C40.317 27.1702 39.617 27.8402 39.617 28.6802C39.617 29.5002 40.317 30.1602 41.176 30.1602C42.067 30.1602 42.766 29.5002 42.766 28.6802C42.766 27.8402 42.067 27.1702 41.176 27.1702ZM36.945 36.3002C34.05 34.8502 32.11 31.9802 32.11 28.6802C32.11 25.9002 33.477 23.4501 35.609 21.8501L28.483 20.3701C28.642 20.8801 28.706 21.4301 28.706 22.0001C28.706 25.2701 25.938 27.9302 22.503 27.9302C22.153 27.9302 21.834 27.9001 21.485 27.8401L23.52 34.2401C24.411 33.6101 25.525 33.2201 26.733 33.2201C29.628 33.2201 31.982 35.4501 31.982 38.2001V38.2301L36.945 36.3002ZM26.733 37.9601C26.574 37.9601 26.479 38.0801 26.479 38.2001C26.479 38.3501 26.606 38.4701 26.733 38.4701C26.892 38.4701 26.988 38.3501 26.988 38.2001C26.988 38.0801 26.892 37.9601 26.733 37.9601ZM26.733 37.9601C26.574 37.9601 26.479 38.0801 26.479 38.2001C26.479 38.3501 26.606 38.4701 26.733 38.4701C26.892 38.4701 26.988 38.3501 26.988 38.2001C26.988 38.0801 26.892 37.9601 26.733 37.9601ZM36.945 36.3002C34.05 34.8502 32.11 31.9802 32.11 28.6802C32.11 25.9002 33.477 23.4501 35.609 21.8501L28.483 20.3701C28.642 20.8801 28.706 21.4301 28.706 22.0001C28.706 25.2701 25.938 27.9302 22.503 27.9302C22.153 27.9302 21.834 27.9001 21.485 27.8401L23.52 34.2401C24.411 33.6101 25.525 33.2201 26.733 33.2201C29.628 33.2201 31.982 35.4501 31.982 38.2001V38.2301L36.945 36.3002ZM41.176 27.1702C40.317 27.1702 39.617 27.8402 39.617 28.6802C39.617 29.5002 40.317 30.1602 41.176 30.1602C42.067 30.1602 42.766 29.5002 42.766 28.6802C42.766 27.8402 42.067 27.1702 41.176 27.1702ZM41.176 27.1702C40.317 27.1702 39.617 27.8402 39.617 28.6802C39.617 29.5002 40.317 30.1602 41.176 30.1602C42.067 30.1602 42.766 29.5002 42.766 28.6802C42.766 27.8402 42.067 27.1702 41.176 27.1702ZM36.945 36.3002C34.05 34.8502 32.11 31.9802 32.11 28.6802C32.11 25.9002 33.477 23.4501 35.609 21.8501L28.483 20.3701C28.642 20.8801 28.706 21.4301 28.706 22.0001C28.706 25.2701 25.938 27.9302 22.503 27.9302C22.153 27.9302 21.834 27.9001 21.485 27.8401L23.52 34.2401C24.411 33.6101 25.525 33.2201 26.733 33.2201C29.628 33.2201 31.982 35.4501 31.982 38.2001V38.2301L36.945 36.3002ZM26.733 37.9601C26.574 37.9601 26.479 38.0801 26.479 38.2001C26.479 38.3501 26.606 38.4701 26.733 38.4701C26.892 38.4701 26.988 38.3501 26.988 38.2001C26.988 38.0801 26.892 37.9601 26.733 37.9601ZM26.733 37.9601C26.574 37.9601 26.479 38.0801 26.479 38.2001C26.479 38.3501 26.606 38.4701 26.733 38.4701C26.892 38.4701 26.988 38.3501 26.988 38.2001C26.988 38.0801 26.892 37.9601 26.733 37.9601ZM36.945 36.3002C34.05 34.8502 32.11 31.9802 32.11 28.6802C32.11 25.9002 33.477 23.4501 35.609 21.8501L28.483 20.3701C28.642 20.8801 28.706 21.4301 28.706 22.0001C28.706 25.2701 25.938 27.9302 22.503 27.9302C22.153 27.9302 21.834 27.9001 21.485 27.8401L23.52 34.2401C24.411 33.6101 25.525 33.2201 26.733 33.2201C29.628 33.2201 31.982 35.4501 31.982 38.2001V38.2301L36.945 36.3002ZM41.176 27.1702C40.317 27.1702 39.617 27.8402 39.617 28.6802C39.617 29.5002 40.317 30.1602 41.176 30.1602C42.067 30.1602 42.766 29.5002 42.766 28.6802C42.766 27.8402 42.067 27.1702 41.176 27.1702ZM41.176 27.1702C40.317 27.1702 39.617 27.8402 39.617 28.6802C39.617 29.5002 40.317 30.1602 41.176 30.1602C42.067 30.1602 42.766 29.5002 42.766 28.6802C42.766 27.8402 42.067 27.1702 41.176 27.1702ZM26.733 37.9601C26.574 37.9601 26.479 38.0801 26.479 38.2001C26.479 38.3501 26.606 38.4701 26.733 38.4701C26.892 38.4701 26.988 38.3501 26.988 38.2001C26.988 38.0801 26.892 37.9601 26.733 37.9601ZM36.945 36.3002C34.05 34.8502 32.11 31.9802 32.11 28.6802C32.11 25.9002 33.477 23.4501 35.609 21.8501L28.483 20.3701C28.642 20.8801 28.706 21.4301 28.706 22.0001C28.706 25.2701 25.938 27.9302 22.503 27.9302C22.153 27.9302 21.834 27.9001 21.485 27.8401L23.52 34.2401C24.411 33.6101 25.525 33.2201 26.733 33.2201C29.628 33.2201 31.982 35.4501 31.982 38.2001V38.2301L36.945 36.3002ZM41.176 27.1702C40.317 27.1702 39.617 27.8402 39.617 28.6802C39.617 29.5002 40.317 30.1602 41.176 30.1602C42.067 30.1602 42.766 29.5002 42.766 28.6802C42.766 27.8402 42.067 27.1702 41.176 27.1702ZM41.176 27.1702C40.317 27.1702 39.617 27.8402 39.617 28.6802C39.617 29.5002 40.317 30.1602 41.176 30.1602C42.067 30.1602 42.766 29.5002 42.766 28.6802C42.766 27.8402 42.067 27.1702 41.176 27.1702Z" fill="#EC1F36"/>
<path d="M40.062 37.2401L31.377 40.5901C31.568 40.2301 31.759 39.8001 31.855 39.3501L38.281 36.8701C38.853 37.0501 39.426 37.1801 40.062 37.2401Z" fill="#EC1F36"/>
<path d="M38.472 20.4299C37.899 20.6099 37.358 20.8199 36.818 21.0999L28.006 19.2799C27.783 18.8299 27.497 18.4398 27.147 18.0698L38.472 20.4299Z" fill="#EC1F36"/>
<path d="M22.693 35.0302C22.375 35.3602 22.153 35.7201 21.962 36.1201L19.035 26.9302C19.449 27.1702 19.862 27.3802 20.308 27.5302L22.693 35.0302Z" fill="#EC1F36"/>
<path d="M41.175 31.16C39.744 31.16 38.567 30.0401 38.567 28.6801C38.567 27.2901 39.744 26.17 41.175 26.17C42.639 26.17 43.784 27.2901 43.784 28.6801C43.784 30.0401 42.639 31.16 41.175 31.16ZM41.175 21.04C36.753 21.04 33.127 24.4501 33.127 28.6801C33.127 32.8801 36.753 36.33 41.175 36.33C45.629 36.33 49.224 32.8801 49.224 28.6801C49.224 24.4501 45.629 21.04 41.175 21.04Z" fill="#EC1F36"/>
<path d="M22.502 23.5101C21.643 23.5101 20.943 22.8501 20.943 22.0001C20.943 21.1901 21.643 20.4901 22.502 20.4901C23.393 20.4901 24.093 21.1901 24.093 22.0001C24.093 22.8501 23.393 23.5101 22.502 23.5101ZM22.502 17.0801C19.639 17.0801 17.317 19.2801 17.317 22.0001C17.317 24.7201 19.639 26.9302 22.502 26.9302C25.365 26.9302 27.687 24.7201 27.687 22.0001C27.687 19.2801 25.365 17.0801 22.502 17.0801Z" fill="#EC1F36"/>
<path d="M26.733 39.4701C26.001 39.4701 25.429 38.9001 25.429 38.2001C25.429 37.5401 26.001 36.9601 26.733 36.9601C27.465 36.9601 28.037 37.5401 28.037 38.2001C28.037 38.9001 27.465 39.4701 26.733 39.4701ZM26.733 34.1802C24.411 34.1802 22.502 36.0001 22.502 38.2001C22.502 40.4401 24.411 42.2501 26.733 42.2501C29.087 42.2501 30.964 40.4401 30.964 38.2001C30.964 36.0001 29.087 34.1802 26.733 34.1802Z" fill="#EC1F36"/>
<path d="M46.265 7.04004H45.47V1.20996H46.265V7.04004ZM44.802 7.04004H44.006V1.20996H44.802V7.04004ZM43.37 7.04004H42.575V1.20996H43.37V7.04004ZM41.907 7.04004H41.111V1.20996H41.907V7.04004ZM40.443 7.04004H39.648V1.20996H40.443V7.04004ZM38.98 7.04004H38.185V1.20996H38.98V7.04004ZM37.517 7.04004H36.721V1.20996H37.517V7.04004ZM36.053 7.04004H35.258V1.20996H36.053V7.04004ZM34.59 7.04004H33.795V1.20996H34.59V7.04004ZM33.127 7.04004H32.331V1.20996H33.127V7.04004ZM31.663 7.04004H30.868V1.20996H31.663V7.04004ZM30.2 7.04004H29.405V1.20996H30.2V7.04004ZM28.737 7.04004H27.941V1.20996H28.737V7.04004ZM27.305 7.04004H26.51V1.20996H27.305V7.04004ZM25.842 7.04004H25.047V1.20996H25.842V7.04004ZM24.379 7.04004H23.583V1.20996H24.379V7.04004ZM22.915 7.04004H22.12V1.20996H22.915V7.04004ZM21.452 7.04004H20.657V1.20996H21.452V7.04004ZM20.052 0.540039V7.62H46.837V0.540039H20.052Z" fill="#EC1F36"/>
<path d="M26.574 10.2799H40.348V8.3999H26.574V10.2799Z" fill="#EC1F36"/>
<path d="M26.065 11.21L25.811 11.33L10.605 21.4L4.37002 25.51L3.60601 26.02L0.93401 22.37C-0.36999 20.55 0.107011 18.1 2.01601 16.87L17.667 6.58997C18.08 6.31997 18.558 6.14002 19.003 6.02002V8.60999H24.188L26.065 11.21Z" fill="#EC1F36"/>
<path d="M14.518 33.6101H10.001C8.79201 33.6101 8.315 32.3102 8.315 32.3102L4.84698 26.3901L10.096 22.9102L14.518 33.6101Z" fill="#EC1F36"/>
<path d="M65.956 22.37L63.284 26.02L62.521 25.51L56.286 21.4L41.08 11.33L40.825 11.21L42.702 8.60999H47.887V6.02002C48.333 6.14002 48.81 6.31997 49.223 6.58997L64.875 16.87C66.783 18.1 67.26 20.55 65.956 22.37Z" fill="#EC1F36"/>
<path d="M62.012 26.3901L58.577 32.3102C58.577 32.3102 58.1 33.6101 56.891 33.6101H52.374L56.764 22.9102L62.012 26.3901Z" fill="#EC1F36"/>
</svg>
