<svg width="37" height="36" viewBox="0 0 37 36" fill="none" xmlns="http://www.w3.org/2000/svg">
<path d="M12.75 28.5C13.5456 28.5 14.3087 28.1839 14.8713 27.6213C15.4339 27.0587 15.75 26.2957 15.75 25.5C15.75 24.7044 15.4339 23.9413 14.8713 23.3787C14.3087 22.8161 13.5456 22.5 12.75 22.5C11.9544 22.5 11.1913 22.8161 10.6287 23.3787C10.0661 23.9413 9.75 24.7044 9.75 25.5C9.75 26.2957 10.0661 27.0587 10.6287 27.6213C11.1913 28.1839 11.9544 28.5 12.75 28.5V28.5Z" stroke="#1A2E35" stroke-width="1.5" stroke-miterlimit="1.5" stroke-linecap="round" stroke-linejoin="round"/>
<path d="M27.75 28.5C28.5456 28.5 29.3087 28.1839 29.8713 27.6213C30.4339 27.0587 30.75 26.2957 30.75 25.5C30.75 24.7044 30.4339 23.9413 29.8713 23.3787C29.3087 22.8161 28.5456 22.5 27.75 22.5C26.9543 22.5 26.1913 22.8161 25.6287 23.3787C25.0661 23.9413 24.75 24.7044 24.75 25.5C24.75 26.2957 25.0661 27.0587 25.6287 27.6213C26.1913 28.1839 26.9543 28.5 27.75 28.5V28.5Z" stroke="#1A2E35" stroke-width="1.5" stroke-miterlimit="1.5" stroke-linecap="round" stroke-linejoin="round"/>
<path d="M15.825 25.5H23.25V9.9C23.25 9.66131 23.1552 9.43239 22.9864 9.2636C22.8176 9.09482 22.5887 9 22.35 9H2.25" stroke="#1A2E35" stroke-width="1.5" stroke-linecap="round"/>
<path d="M9.225 25.5H6.15C6.03181 25.5 5.91478 25.4767 5.80558 25.4315C5.69639 25.3863 5.59718 25.32 5.5136 25.2364C5.43003 25.1528 5.36374 25.0536 5.31851 24.9444C5.27328 24.8352 5.25 24.7182 5.25 24.6V17.25" stroke="#1A2E35" stroke-width="1.5" stroke-linecap="round"/>
<path d="M3.75 13.5H9.75" stroke="#1A2E35" stroke-width="1.5" stroke-linecap="round" stroke-linejoin="round"/>
<path d="M23.25 13.5H31.665C31.839 13.5 32.0092 13.5505 32.1551 13.6453C32.301 13.74 32.4163 13.8751 32.487 14.034L35.172 20.076C35.2231 20.1907 35.2497 20.3149 35.25 20.4405V24.6C35.25 24.7182 35.2267 24.8352 35.1815 24.9444C35.1363 25.0536 35.07 25.1528 34.9864 25.2364C34.9028 25.32 34.8036 25.3863 34.6944 25.4315C34.5852 25.4767 34.4682 25.5 34.35 25.5H31.5" stroke="#1A2E35" stroke-width="1.5" stroke-linecap="round"/>
<path d="M23.25 25.5H24.75" stroke="#1A2E35" stroke-width="1.5" stroke-linecap="round"/>
</svg>
