<svg width="37" height="36" viewBox="0 0 37 36" fill="none" xmlns="http://www.w3.org/2000/svg">
<path d="M31.7301 1.125L23.3089 5.48438L15.5042 2.10938L4.83244 2.8125L1.40625 32.7656L12.4397 31.8279L24.6859 34.875L35.1562 31.0781L31.7301 1.125ZM30.798 2.87381L33.9379 30.3232L24.9019 33.5998L24.8518 32.5457L32.823 29.5363L30.0994 4.45275L23.6616 7.506L23.6177 6.59138L23.8264 6.48394L30.798 2.87381ZM24.2522 19.9401C24.3771 19.6746 24.4997 19.3016 24.5582 18.7785C24.5582 18.7785 25.1781 18.8089 25.9408 20.4711C25.9408 20.4711 26.2738 20.4379 26.1079 19.3528C26.1079 19.3528 27.2987 18.873 26.6563 16.7631C26.6563 16.7631 27.6553 18.1389 27.3234 16.3502C27.3234 16.3502 28.4192 15.0069 27.1102 14.1137C27.1102 14.1137 27.1552 13.1231 27.9422 13.2502C27.9422 13.2502 28.7286 11.205 28.3494 13.6333C28.3494 13.6333 28.3719 14.1137 28.872 14.6554C28.872 14.6554 29.0874 13.8572 28.7055 12.9966C28.7055 12.9966 29.4924 11.5239 29.4204 10.2476C29.4204 10.2476 26.8712 11.1932 24.0345 10.9108C24.0345 10.9108 24.1729 10.3832 23.7853 10.0868L23.706 8.41894L23.7735 8.38688L29.3895 5.724L31.914 28.9783L24.8102 31.6609L24.2522 19.9401ZM23.2183 10.0434C22.9253 10.4614 22.1119 11.7467 22.6063 12.5162C22.6063 12.5162 22.3667 14.1829 22.0326 11.7517C22.0326 11.7517 21.4864 13.1867 20.7472 12.8666C20.7472 12.8666 20.5442 14.319 20.079 13.3459C20.079 13.3459 20.4598 13.5062 20.5436 13.059C20.5436 13.059 19.4698 11.9087 18.828 13.6479C18.828 13.6479 18.3038 13.8566 18.5068 14.6722C18.5068 14.6722 18.8747 13.9995 19.0659 15.0238C19.0659 15.0238 19.269 14.8641 19.3539 13.5529C19.3539 13.5529 19.8636 13.2986 19.4698 14.3347C19.4698 14.3347 20.6376 14.3533 18.828 15.3889C18.828 15.3889 18.7279 15.372 18.6491 14.9749C18.6491 14.9749 18.3752 15.9311 17.8138 16.2703C17.8138 16.2703 17.9454 16.6523 17.5292 16.8278C17.5292 16.8278 17.3036 17.4195 17.8403 17.4195C17.8403 17.4195 18.3043 15.9975 19.1863 17.1163C19.1863 17.1163 19.3545 17.0527 19.0918 16.4931C19.0918 16.4931 19.5553 16.6708 19.7347 17.4037C19.7347 17.4037 20.0211 17.3542 20.0666 16.7169C20.0666 16.7169 20.4261 15.9024 21.0105 16.8615C21.0105 16.8615 20.2348 16.6371 20.0334 17.4195C20.0334 17.4195 20.4002 17.2592 20.6286 17.4836C20.6286 17.4836 20.6516 17.8487 20.4176 17.9899C20.5189 18.18 20.6286 18.3622 20.7816 18.5164C20.8242 18.5561 20.8518 18.6093 20.8597 18.667C20.8676 18.7247 20.8553 18.7834 20.8249 18.8331C21.2377 19.5396 22.0005 20.4801 22.5343 18.9788C22.5343 18.9788 21.8199 19.3843 21.5809 18.2655C21.5809 18.2655 23.0226 18.4489 23.6874 19.8951L24.2471 31.6783L13.0354 28.5339L13.2036 26.8706C13.4364 27.4674 13.7092 27.7099 13.7092 27.7099C13.3926 25.1139 15.2657 23.4506 15.2657 23.4506C15.6296 21.6686 14.7043 20.8687 13.8465 20.5087L14.2869 16.1505C14.4636 15.9306 14.5676 15.7837 14.5676 15.7837C14.5041 15.5649 14.4422 15.3731 14.3831 15.1976L14.8101 10.9688C15.1689 11.4058 15.21 11.8029 15.1093 12.1641C14.6475 13.8251 15.2415 14.3342 15.2415 14.3342C15.6021 12.9313 16.8396 12.7074 16.8396 12.7074C16.7687 11.3957 17.5303 9.9045 17.5303 9.9045C16.7018 8.48081 15.5166 9.441 14.8956 10.1205L14.9439 9.64294C15.0711 9.47925 15.2038 9.30094 15.3472 9.09731C15.3472 9.09731 15.2286 9.01575 15.0131 8.95612L15.3911 5.21269L23.0884 8.40319L23.1424 8.42569L23.2183 10.0434ZM14.4534 8.89875C14.0698 8.91675 13.5788 9.04894 13.0011 9.44831C13.0011 9.44831 12.7266 11.9694 14.3027 10.3894L14.1266 12.1337C13.9208 11.4452 13.4325 11.2056 13.4325 11.2056C12.9544 11.4947 13.0022 11.8772 13.0022 11.8772C13.4359 11.9424 13.7008 12.4644 13.8566 12.9538C13.7689 13.0882 13.6187 13.2418 13.3594 13.2671C13.3594 13.2671 13.6614 13.7211 13.9539 13.8482L13.9219 14.1609C13.2413 13.1411 12.9465 15.1903 12.9465 15.1903C11.2641 13.3155 13.3931 12.3772 13.3931 12.3772C12.0898 11.8266 11.4862 10.2482 11.4862 10.2482C11.4227 11.2286 11.0408 11.1853 11.0408 11.1853C8.05387 9.43931 7.51613 12.2513 7.51613 12.2513C7.99031 13.7408 6.97388 13.9112 6.97388 13.9112C7.95825 14.0811 8.46619 12.7181 8.46619 12.7181C10.5013 13.7408 9.42075 17.4043 9.42075 17.4043C10.2144 17.8712 10.4372 19.4062 10.4372 19.4062C10.9901 19.5739 11.5566 19.9125 11.9537 20.1808C12.0307 20.1116 12.1101 20.0458 12.1933 19.9845C11.2652 19.3286 11.2635 18.2666 11.2635 18.2666C12.1056 18.2666 13.0011 17.541 13.6474 16.8739L13.2986 20.3293C13.1417 20.2899 12.9826 20.2592 12.8222 20.2376C12.6722 20.3095 12.5314 20.399 12.4026 20.5042L12.4712 20.5577C11.5352 22.356 12.8008 23.0771 13.0106 23.1812L12.4734 28.4968L5.02819 29.079L7.51163 5.55863L14.8342 5.12775L14.4534 8.89875ZM12.9493 29.3867L24.2887 32.5671L24.3394 33.6296L12.8104 30.7609L12.9493 29.3867ZM23.0546 6.60038L23.0974 7.49475L15.48 4.33744L15.5779 3.36656L22.8623 6.51713L23.0546 6.60038ZM5.84381 3.87338L15.0221 3.26869L14.9203 4.27781L6.74775 4.75819L4.08319 29.9998L12.3885 29.349L12.2501 30.7148L2.68031 31.5287L5.84381 3.87338Z" fill="#1A2E35"/>
<path d="M18.3162 20.5971C18.3162 20.5971 19.5098 20.8204 19.0322 23.1204C19.0322 23.1204 19.2229 24.9131 20.2697 24.7494C20.2697 24.7494 20.5555 22.1625 21.8903 20.1808C21.8903 20.1808 21.3492 20.7197 20.7355 18.9326C20.6427 19.0001 20.5167 19.0159 20.4115 18.9112C20.1471 18.6474 19.9874 18.315 19.8152 17.9809C19.7908 17.9328 19.7808 17.8787 19.7865 17.8251C18.918 17.5011 17.1591 17.1759 16.9099 19.7336C16.9105 19.7336 17.2429 21.4942 18.3162 20.5971Z" fill="#1A2E35"/>
<path d="M17.7694 14.6222C17.8515 15.7742 18.0057 16.1241 18.2076 15.6454C18.4107 15.1706 17.7694 14.6222 17.7694 14.6222Z" fill="#1A2E35"/>
<path d="M17.4087 15.7095C17.4087 15.7095 17.7445 15.66 17.6483 15.2375C17.6483 15.2375 17.4087 15.2623 17.4087 15.7095Z" fill="#1A2E35"/>
<path d="M17.2793 13.3937C17.2793 13.3937 16.4328 13.3937 16.732 13.8262C17.0296 14.2577 17.2793 13.3937 17.2793 13.3937Z" fill="#1A2E35"/>
<path d="M21.51 23.8882C21.51 23.8882 21.7688 23.3606 21.7604 22.5472C21.7609 22.5472 20.9374 23.4877 21.51 23.8882Z" fill="#1A2E35"/>
<path d="M26.8459 20.5819C26.8459 20.5819 26.2497 21.1258 26.3588 21.6214C26.4662 22.1186 26.9894 21.5235 26.8459 20.5819Z" fill="#1A2E35"/>
<path d="M29.2303 22.3408C29.4919 21.8829 27.7976 21.3159 27.7976 21.3159C28.1323 21.8121 28.9929 22.7492 29.2303 22.3408Z" fill="#1A2E35"/>
<path d="M27.3352 22.4387C27.7329 21.7581 26.1315 22.0837 26.1315 22.0837C26.1315 22.0837 27.1805 22.7076 27.3352 22.4387Z" fill="#1A2E35"/>
<path d="M27.9646 22.5804C27.9646 22.5804 27.644 23.2976 26.4526 23.5997C26.4526 23.5997 26.7041 24.1763 26.4526 25.2636C26.4526 25.2636 27.6553 23.7291 28.3483 25.9487C28.3483 25.9487 28.9428 26.2716 29.3596 24.2618C29.3596 24.2618 28.8596 23.5378 28.6931 22.5084C28.6936 22.5079 28.5283 23.8269 27.9646 22.5804Z" fill="#1A2E35"/>
<path d="M28.1998 16.0369C28.2758 15.9733 28.3348 15.9503 28.3348 15.9503C27.7515 15.0069 27.9647 16.3665 27.9647 16.3665C28.0024 16.2771 28.0468 16.2084 28.0924 16.1505C28.1233 16.5533 28.0266 17.1534 27.3977 17.7238C27.3971 17.7238 28.746 17.2153 28.1998 16.0369Z" fill="#1A2E35"/>
<path d="M17.9055 8.97469C18.1997 8.28507 17.2749 7.49982 17.2749 7.49982C17.3936 9.1575 17.6135 9.66375 17.9055 8.97469Z" fill="#1A2E35"/>
<path d="M16.7559 9.06525C16.7559 9.06525 17.2345 8.99437 17.099 8.388C17.099 8.388 16.7559 8.42231 16.7559 9.06525Z" fill="#1A2E35"/>
</svg>
