<svg width="33" height="32" viewBox="0 0 33 32" fill="none" xmlns="http://www.w3.org/2000/svg">
<path d="M12.75 6H8.75V2H6.75V6H2.75V8H6.75V12H8.75V8H12.75V6Z" fill="#1A2E35"/>
<path d="M30.669 16.606L27.669 9.606C27.592 9.42608 27.4639 9.27273 27.3005 9.165C27.1371 9.05727 26.9457 8.99989 26.75 9H23.75V7C23.75 6.73478 23.6446 6.48043 23.4571 6.29289C23.2696 6.10536 23.0152 6 22.75 6H15.75V8H21.75V20.556C21.2943 20.8206 20.8956 21.1728 20.5767 21.5922C20.2578 22.0117 20.0251 22.4902 19.892 23H13.608C13.3905 22.1418 12.893 21.3806 12.1942 20.8368C11.4955 20.2931 10.6354 19.9979 9.75 19.9979C8.86462 19.9979 8.00452 20.2931 7.30578 20.8368C6.60703 21.3806 6.10953 22.1418 5.892 23H4.75V14H2.75V24C2.75 24.2652 2.85536 24.5196 3.04289 24.7071C3.23043 24.8946 3.48478 25 3.75 25H5.892C6.10953 25.8582 6.60703 26.6194 7.30578 27.1632C8.00452 27.7069 8.86462 28.0021 9.75 28.0021C10.6354 28.0021 11.4955 27.7069 12.1942 27.1632C12.893 26.6194 13.3905 25.8582 13.608 25H19.892C20.1095 25.8582 20.607 26.6194 21.3058 27.1632C22.0045 27.7069 22.8646 28.0021 23.75 28.0021C24.6354 28.0021 25.4955 27.7069 26.1942 27.1632C26.893 26.6194 27.3905 25.8582 27.608 25H29.75C30.0152 25 30.2696 24.8946 30.4571 24.7071C30.6446 24.5196 30.75 24.2652 30.75 24V17C30.75 16.8645 30.7225 16.7305 30.669 16.606V16.606ZM9.75 26C9.35444 26 8.96776 25.8827 8.63886 25.6629C8.30996 25.4432 8.05362 25.1308 7.90224 24.7654C7.75087 24.3999 7.71126 23.9978 7.78843 23.6098C7.8656 23.2219 8.05608 22.8655 8.33579 22.5858C8.61549 22.3061 8.97186 22.1156 9.35982 22.0384C9.74778 21.9613 10.1499 22.0009 10.5154 22.1522C10.8808 22.3036 11.1932 22.56 11.4129 22.8889C11.6327 23.2178 11.75 23.6044 11.75 24C11.7492 24.5302 11.5382 25.0384 11.1633 25.4133C10.7884 25.7882 10.2802 25.9992 9.75 26V26ZM23.75 11H26.09L28.234 16H23.75V11ZM23.75 26C23.3544 26 22.9678 25.8827 22.6389 25.6629C22.31 25.4432 22.0536 25.1308 21.9022 24.7654C21.7509 24.3999 21.7113 23.9978 21.7884 23.6098C21.8656 23.2219 22.0561 22.8655 22.3358 22.5858C22.6155 22.3061 22.9719 22.1156 23.3598 22.0384C23.7478 21.9613 24.1499 22.0009 24.5154 22.1522C24.8808 22.3036 25.1932 22.56 25.4129 22.8889C25.6327 23.2178 25.75 23.6044 25.75 24C25.7495 24.5303 25.5386 25.0387 25.1636 25.4136C24.7887 25.7886 24.2803 25.9995 23.75 26ZM28.75 23H27.608C27.3877 22.1434 26.8894 21.3842 26.1912 20.8413C25.493 20.2983 24.6344 20.0025 23.75 20V18H28.75V23Z" fill="#1A2E35"/>
</svg>
